<svg xmlns="http://www.w3.org/2000/svg" width="70" height="70" viewBox="0 0 70 70">
  <g id="choose-best-techniques" transform="translate(7254 -2524)">
    <rect id="developers" width="70" height="70" rx="6" transform="translate(-7254 2524)" fill="#ebebeb"/>
    <g id="system" transform="translate(-7239.163 2538.836)">
      <path id="Path_921" data-name="Path 921" d="M39.992,17.028l-5.031-3.594-1.85,1.321A15.01,15.01,0,0,0,30,11.307a5.647,5.647,0,0,0,.557-8.869,5.66,5.66,0,0,0-9.383,3.481,5.74,5.74,0,0,0,.111,2.024A15.253,15.253,0,0,0,18.19,8.1l-.6-.6-1.6.825a9.5,9.5,0,0,0-1.4-.578l-.551-1.719H9.345L8.795,7.751a9.472,9.472,0,0,0-1.4.578L5.79,7.5,2.473,10.821l.825,1.6a9.5,9.5,0,0,0-.578,1.4L1,14.378v4.691l1.719.551a9.416,9.416,0,0,0,.578,1.4l-.825,1.6,3.317,3.316.183-.094a3.241,3.241,0,0,1,.059.587v2.584a4.425,4.425,0,0,0,.459,1.957L7.918,33.85v1.226A1.884,1.884,0,0,0,6.66,36.848v3.144H20.5V38.105a15.182,15.182,0,0,0,3.144-.333v.333a1.889,1.889,0,0,0,1.887,1.887h5.031a1.889,1.889,0,0,0,1.887-1.887V32.222a14.9,14.9,0,0,0,3.119-8.581h3.17V18.61h1.258Zm-1.711.324h-6.64l3.32-2.372ZM28.043,13.578a1.258,1.258,0,0,1-2.516,0ZM26.156,6.661a.629.629,0,1,1,.629.629A.629.629,0,0,1,26.156,6.661ZM22.42,6.078a4.417,4.417,0,0,1,3.849-3.79,4.561,4.561,0,0,1,.521-.03,4.35,4.35,0,0,1,2.926,1.118,4.4,4.4,0,0,1-.553,6.987,2.452,2.452,0,0,0-1.112,1.958h-.637V8.431a1.887,1.887,0,1,0-1.258,0v3.889h-.638a2.451,2.451,0,0,0-1.1-1.951,4.384,4.384,0,0,1-2-4.291ZM4.556,20.709a8.16,8.16,0,0,1-.724-1.759l-.092-.325-1.482-.474V15.3l1.482-.474.092-.325a8.106,8.106,0,0,1,.725-1.759l.165-.295-.711-1.38,2.02-2.02,1.38.711.295-.165a8.106,8.106,0,0,1,1.759-.725l.325-.092.474-1.482h2.856l.474,1.482.325.092a8.106,8.106,0,0,1,1.759.725l.295.165,1.38-.711,2.02,2.02-.711,1.38.165.295a8.107,8.107,0,0,1,.725,1.759l.092.325,1.482.474V18.15l-1.482.474-.092.325a8.16,8.16,0,0,1-.724,1.759L18.661,21l.1.191a2,2,0,0,0-.223.069,1.882,1.882,0,0,0-.838-1.116,6.854,6.854,0,0,0,.911-3.424A6.918,6.918,0,1,0,6.346,21.106a1.613,1.613,0,0,0-1.49,2.122l-.845-.845L4.721,21Zm10.909-.351a1.829,1.829,0,0,0-1.887-.375V14.207a1.887,1.887,0,1,0-3.773,0v7.848a5.658,5.658,0,1,1,7.547-5.332,5.6,5.6,0,0,1-.983,3.18,1.875,1.875,0,0,0-.9.455ZM7.617,30.416a3.165,3.165,0,0,1-.328-1.4V26.435a4.611,4.611,0,0,0-.484-2.05l-.733-1.466a.388.388,0,0,1-.041-.174.406.406,0,0,1,.449-.389A3.329,3.329,0,0,1,9.8,25.682v2.335h1.258V14.207a.629.629,0,1,1,1.258,0V24.27h1.258V21.754a.629.629,0,0,1,1.258,0V24.27h1.258V21.754a.629.629,0,0,1,1.258,0V24.27h1.258V23.012a.629.629,0,1,1,1.258,0V29.93a3.162,3.162,0,0,1-.629,1.887L17.98,33.494v1.467h-8.8v-1.4Zm11.621,8.318H7.918V36.848a.629.629,0,0,1,.629-.629H18.609a.629.629,0,0,1,.629.629ZM31.187,28.672H24.9v-.629a.629.629,0,0,1,.629-.629h5.031a.629.629,0,0,1,.629.629ZM24.9,29.93h6.289v6.289H24.9Zm5.66,8.8H25.527a.629.629,0,0,1-.629-.629v-.629h6.289v.629A.629.629,0,0,1,30.558,38.734Zm1.887-8.758V28.043a1.889,1.889,0,0,0-1.887-1.887H25.527a1.889,1.889,0,0,0-1.887,1.887v8.435a14.024,14.024,0,0,1-3.146.359,1.883,1.883,0,0,0-1.257-1.76V33.913l1.006-1.341a4.426,4.426,0,0,0,.88-2.641V23.012a1.884,1.884,0,0,0-.811-1.546l-.229-.444a9.443,9.443,0,0,0,.578-1.4l1.72-.552V14.377l-1.719-.551a9.471,9.471,0,0,0-.578-1.4l.825-1.6L19.322,9.233a14.161,14.161,0,0,1,2.433.008,5.642,5.642,0,0,0,1.986,2.189,1.237,1.237,0,0,1,.528,1.048v1.1a2.516,2.516,0,0,0,5.031,0V12.452c0-.029.008-.055.01-.084a13.76,13.76,0,0,1,2.777,3.119l-2.158,1.541V18.61h1.258v5.031h3.119a13.639,13.639,0,0,1-1.861,6.336Zm5.031-7.593H32.445V18.61h5.031Z" transform="translate(0 0)" fill="#750fdb"/>
      <path id="Path_922" data-name="Path 922" d="M45,35h1.258v1.258H45Z" transform="translate(-16.328 -12.617)" fill="#750fdb"/>
      <path id="Path_923" data-name="Path 923" d="M41,35h1.258v1.258H41Z" transform="translate(-14.844 -12.617)" fill="#750fdb"/>
      <path id="Path_924" data-name="Path 924" d="M37,35h1.258v1.258H37Z" transform="translate(-13.36 -12.617)" fill="#750fdb"/>
    </g>
  </g>
</svg>
