<svg xmlns="http://www.w3.org/2000/svg" width="70" height="70" viewBox="0 0 70 70">
  <g id="content-writing" transform="translate(7347 -2524)">
    <rect id="developers" width="70" height="70" rx="6" transform="translate(-7347 2524)" fill="#ebebeb"/>
    <g id="write" transform="translate(-7332 2477)">
      <path id="Path_913" data-name="Path 913" d="M90.083,325.006a.577.577,0,1,0,0,1.153h5.882a.577.577,0,0,0,0-1.153Z" transform="translate(-82.624 -238.167)" fill="#ccad00"/>
      <path id="Path_914" data-name="Path 914" d="M381.767,295.006h-2.109a.577.577,0,1,0,0,1.153h2.109a.577.577,0,1,0,0-1.153Z" transform="translate(-349.933 -210.474)" fill="#ccad00"/>
      <path id="Path_915" data-name="Path 915" d="M90.083,236.159h1.976a.577.577,0,1,0,0-1.153H90.083a.577.577,0,1,0,0,1.153Z" transform="translate(-82.624 -155.088)" fill="#ccad00"/>
      <path id="Path_916" data-name="Path 916" d="M119.506,175.583a.577.577,0,0,0,.577.577h6.933a.577.577,0,0,0,0-1.153h-6.933A.577.577,0,0,0,119.506,175.583Z" transform="translate(-110.317 -99.701)" fill="#ccad00"/>
      <path id="Path_917" data-name="Path 917" d="M203.733,126.159a.577.577,0,0,0,0-1.153h-8.151a.577.577,0,0,0,0,1.153Z" transform="translate(-180.012 -53.546)" fill="#ccad00"/>
      <path id="Path_918" data-name="Path 918" d="M39.091,92.756a1.368,1.368,0,0,0-1.1-.549h-.408V69.123A2.125,2.125,0,0,0,35.458,67H29.691a.577.577,0,0,0,0,1.153h5.768a.971.971,0,0,1,.97.97V92.207H31.155a.577.577,0,0,0,0,1.153h6.834a.226.226,0,0,1,.217.289,1.75,1.75,0,0,1-1.676,1.264H23.47V93.36h4.982a.577.577,0,1,0,0-1.153H2.942V83.93a.577.577,0,1,0-1.153,0v8.277H1.38A1.38,1.38,0,0,0,.054,93.965a2.909,2.909,0,0,0,2.785,2.1H36.531a2.909,2.909,0,0,0,2.785-2.1A1.368,1.368,0,0,0,39.091,92.756ZM22.317,94.913H17.13V93.36h5.187ZM1.163,93.649a.226.226,0,0,1,.218-.288h14.6v1.553H2.839a1.75,1.75,0,0,1-1.676-1.264Z" transform="translate(0 0)" fill="#ccad00"/>
      <path id="Path_919" data-name="Path 919" d="M23.836,81.807a.577.577,0,0,0,.577-.577V69.123a.971.971,0,0,1,.97-.97h23.08a.577.577,0,1,0,0-1.153H25.382a2.126,2.126,0,0,0-2.123,2.123V81.231A.577.577,0,0,0,23.836,81.807Z" transform="translate(-21.471 0)" fill="#ccad00"/>
      <path id="Path_920" data-name="Path 920" d="M108.263,103.567l-.4.4H101.63a.577.577,0,0,0,0,1.153h5.079l-1.153,1.153H90.083a.577.577,0,0,0,0,1.153H104.4l-1.153,1.153H94.366a.577.577,0,1,0,0,1.153H102.1l-.676.676a2.934,2.934,0,0,0-.384.478H90.083a.577.577,0,0,0,0,1.153h10.361l-.565,1.153h-9.8a.577.577,0,0,0,0,1.153h9.231l-.724,1.478a1.115,1.115,0,0,0,1.491,1.492l4.63-2.268a2.935,2.935,0,0,0,.786-.562l.14-.14h4.4a.577.577,0,1,0,0-1.153h-3.252l1.153-1.153h5.783a.577.577,0,0,0,0-1.153H109.1l1.153-1.153h4.207a.577.577,0,1,0,0-1.153H111.4l.936-.936a1.505,1.505,0,0,0,.409.057,1.49,1.49,0,0,0,1.06-.439l2.012-2.012a1.5,1.5,0,0,0,.382-1.469l1.148-1.148a1.73,1.73,0,0,0,0-2.447l-1.631-1.631a1.732,1.732,0,0,0-2.447,0l-1.149,1.149a1.5,1.5,0,0,0-1.469.381l-2.012,2.012a1.5,1.5,0,0,0-.381,1.469Zm1.5,1.766-2.183,2.183a.577.577,0,0,0,.816.816l2.183-2.183.816.816-6.579,6.579-.816-.816,2.494-2.494a.577.577,0,1,0-.816-.816l-2.495,2.495-.816-.816,6.579-6.579Zm-7.021,9.4-1.562-1.562.536-1.095,2.121,2.121Zm-3.062,1.5.964-1.967,1,1Zm14.414-16.86a.577.577,0,0,1,.816,0L116.536,101a.577.577,0,0,1,0,.816l-1.014,1.014-2.447-2.447Zm-2.373,1.429a.345.345,0,0,1,.245.1l3.045,3.045a.346.346,0,0,1,0,.489l-.6.6-3.534-3.534.6-.6A.345.345,0,0,1,111.716,100.8Zm-2.257,2.113.6-.6,3.534,3.534-.6.6a.346.346,0,0,1-.489,0h0l-1.522-1.522L109.46,103.4A.346.346,0,0,1,109.46,102.914Z" transform="translate(-82.624 -28.663)" fill="#ccad00"/>
    </g>
  </g>
</svg>
