<svg xmlns="http://www.w3.org/2000/svg" width="70" height="70" viewBox="0 0 70 70">
  <g id="Design" transform="translate(7440 -2524)">
    <rect id="developers" width="70" height="70" rx="6" transform="translate(-7440 2524)" fill="#ebebeb"/>
    <g id="design_1_" data-name="design (1)" transform="translate(-7423 2540.986)">
      <g id="Group_49" data-name="Group 49" transform="translate(0 0.014)">
        <g id="Group_48" data-name="Group 48" transform="translate(0 0)">
          <path id="Path_910" data-name="Path 910" d="M35.881,26.417,34.1,24.639h0l-2.777-2.777h0l-5.118-5.118,7.787-7.787a2.63,2.63,0,0,0,0-3.719l-2.71-2.71a2.63,2.63,0,0,0-3.719,0l-7.787,7.787L14.656,5.192,11.877,2.413h0L10.1.638a2.134,2.134,0,0,0-3.015,0L.624,7.1a2.132,2.132,0,0,0,0,3.015L10.3,19.791,6.545,23.545a.714.714,0,0,0-.144.207L1.807,33.767a.713.713,0,0,0,.945.945l10.015-4.595a.713.713,0,0,0,.207-.144l3.754-3.754,3.065,3.065A.713.713,0,1,0,20.8,28.277l-3.065-3.065L25.2,17.75l1.836,1.836-.682.682a.713.713,0,1,0,1.008,1.008l.682-.682,1.77,1.77L27.775,24.4a.713.713,0,1,0,1.008,1.008l2.037-2.037,1.77,1.77-.682.682a.713.713,0,1,0,1.008,1.008l.682-.682,1.274,1.274a.706.706,0,0,1,0,1L28.41,34.887a.707.707,0,0,1-1,0l-2.57-2.57a.713.713,0,0,0-1.008,1.008L26.4,35.9a2.134,2.134,0,0,0,3.015,0l6.463-6.463a2.132,2.132,0,0,0,0-3.015ZM28.573,3.534a1.2,1.2,0,0,1,1.7,0l2.71,2.71a1.2,1.2,0,0,1,0,1.7L30.9,10.028,26.492,5.615ZM1.633,9.108a.706.706,0,0,1,0-1L8.1,1.646a.707.707,0,0,1,1,0l1.27,1.27L9.682,3.6a.713.713,0,1,0,1.008,1.008l.682-.682L13.143,5.7,11.106,7.732a.713.713,0,1,0,1.008,1.008L14.152,6.7l1.77,1.77-.682.682a.713.713,0,1,0,1.008,1.008l.682-.682,1.839,1.839-7.461,7.461ZM3.9,32.615l.976-2.128,1.152,1.152ZM7.415,31l-1.9-1.9L7.27,25.278l3.971,3.971Zm5.055-2.543L8.058,24.049,25.483,6.624l2.37,2.37L21.977,14.87a.713.713,0,1,0,1.008,1.008L28.862,10,29.9,11.036Z" transform="translate(0 -0.014)" fill="#4ea25b"/>
        </g>
      </g>
      <g id="Group_51" data-name="Group 51" transform="translate(21.768 30.251)">
        <g id="Group_50" data-name="Group 50">
          <path id="Path_911" data-name="Path 911" d="M306.517,424.3a.714.714,0,1,0,.209.5A.718.718,0,0,0,306.517,424.3Z" transform="translate(-305.3 -424.091)" fill="#4ea25b"/>
        </g>
      </g>
      <g id="Group_53" data-name="Group 53" transform="translate(19.861 16.568)">
        <g id="Group_52" data-name="Group 52">
          <path id="Path_912" data-name="Path 912" d="M279.777,232.39a.713.713,0,1,0,.209.5A.719.719,0,0,0,279.777,232.39Z" transform="translate(-278.56 -232.181)" fill="#4ea25b"/>
        </g>
      </g>
    </g>
  </g>
</svg>
