<svg xmlns="http://www.w3.org/2000/svg" width="70" height="70" viewBox="0 0 70 70">
  <g id="maintenance" transform="translate(6979 -2524)">
    <rect id="developers" width="70" height="70" rx="6" transform="translate(-6979 2524)" fill="#ebebeb"/>
    <g id="repair" transform="translate(-6962 2541)">
      <path id="Path_931" data-name="Path 931" d="M43.049,31.3A1.647,1.647,0,1,0,44.7,32.951,1.649,1.649,0,0,0,43.049,31.3Zm0,2.242a.6.6,0,1,1,.6-.6A.6.6,0,0,1,43.049,33.547Zm0,0" transform="translate(-38.53 -29.133)" fill="#1531a5"/>
      <path id="Path_932" data-name="Path 932" d="M106.67,31.3a1.647,1.647,0,1,0,1.647,1.647A1.649,1.649,0,0,0,106.67,31.3Zm0,2.242a.6.6,0,1,1,.6-.6A.6.6,0,0,1,106.67,33.547Zm0,0" transform="translate(-97.736 -29.133)" fill="#1531a5"/>
      <path id="Path_933" data-name="Path 933" d="M170.295,31.3a1.647,1.647,0,1,0,1.647,1.647A1.649,1.649,0,0,0,170.295,31.3Zm0,2.242a.6.6,0,1,1,.6-.6A.6.6,0,0,1,170.295,33.547Zm0,0" transform="translate(-156.947 -29.133)" fill="#1531a5"/>
      <path id="Path_934" data-name="Path 934" d="M33.6,0H1.927A1.929,1.929,0,0,0,0,1.927V25.12a1.929,1.929,0,0,0,1.927,1.927h3.39a.525.525,0,0,0,.043.694l2.525,2.525a10.773,10.773,0,0,0-.5,1.195H3.819a.525.525,0,0,0-.525.526V35a.525.525,0,0,0,.525.526h10.37A.525.525,0,0,0,14.714,35a2.908,2.908,0,1,1,5.816,0,.525.525,0,0,0,.526.526h10.37A.525.525,0,0,0,31.951,35V31.986a.525.525,0,0,0-.526-.526h-3.57a10.774,10.774,0,0,0-.5-1.195l2.525-2.525a.526.526,0,0,0,.043-.694H33.6a1.929,1.929,0,0,0,1.927-1.927v-13a.525.525,0,1,0-1.051,0v13A.877.877,0,0,1,33.6,26H28.883l-3.1-3.1V19.3a.526.526,0,0,0-.526-.526h-.946V15.54l.742-.685a.525.525,0,0,0,.146-.542L23.94,10.249a.526.526,0,0,0-.5-.37h-1.4a.526.526,0,0,0-.5.37l-1.261,4.064a.525.525,0,0,0,.146.542l.742.685v3.238h-.946a.525.525,0,0,0-.526.526V20.67H15.555v-.8l2.018-2.018a.525.525,0,0,0,.154-.372V13.173a.525.525,0,0,0-.156-.374l-2.8-2.768a.526.526,0,0,0-.895.374V15.09l-1.366.86-1.366-.86v-.3a.526.526,0,0,0-1.051,0v.589a.525.525,0,0,0,.246.445l1.892,1.191a.525.525,0,0,0,.56,0l1.892-1.191a.525.525,0,0,0,.246-.445V11.663l1.752,1.73v3.872l-2.018,2.018a.526.526,0,0,0-.154.372v1.026a.526.526,0,0,0-.42.515v3.57a10.777,10.777,0,0,0-1.2.5L10.51,22.883V19.654a.526.526,0,0,0-.154-.372L8.338,17.264V13.392l1.752-1.73v.666a.526.526,0,0,0,1.051,0V10.405a.526.526,0,0,0-.895-.374L7.443,12.8a.525.525,0,0,0-.156.374v4.309a.525.525,0,0,0,.154.372l2.018,2.018V22.9L6.362,26H1.927a.877.877,0,0,1-.876-.876V7.637H34.474V9.671a.526.526,0,0,0,1.051,0V1.927A1.929,1.929,0,0,0,33.6,0ZM22.043,14.924l-.667-.616,1.048-3.377h.627L24.1,14.308l-.667.616a.526.526,0,0,0-.169.386v3.468H22.212V15.31A.526.526,0,0,0,22.043,14.924Zm2.692,4.905v3.054l-2.378,2.378a10.83,10.83,0,0,0-1.2-.5V21.2a.526.526,0,0,0-.42-.515V19.83h3.994Zm-11.7,6.538a9.733,9.733,0,0,1,1.729-.717.526.526,0,0,0,.372-.5V21.721H20.11v3.426a.526.526,0,0,0,.372.5,9.733,9.733,0,0,1,1.729.717.526.526,0,0,0,.619-.092l2.423-2.423,3.041,3.041h0l.476.476-2.423,2.423a.526.526,0,0,0-.092.619,9.716,9.716,0,0,1,.717,1.729.526.526,0,0,0,.5.372H30.9v1.962H25.557a7.957,7.957,0,0,0-11.168-6.743.526.526,0,0,0,.428.96A6.906,6.906,0,0,1,24.5,34.474H21.546a3.959,3.959,0,0,0-7.848,0H10.74a6.828,6.828,0,0,1,2.162-4.51.525.525,0,0,0-.719-.767,7.987,7.987,0,0,0-2.5,5.277H4.344V32.512H7.77a.526.526,0,0,0,.5-.372,9.716,9.716,0,0,1,.717-1.729.526.526,0,0,0-.092-.619L6.474,27.369l.476-.476h0l3.041-3.041,2.423,2.423A.526.526,0,0,0,13.034,26.367ZM1.051,6.586V1.927a.877.877,0,0,1,.876-.876H33.6a.877.877,0,0,1,.876.876v4.66Zm0,0" fill="#1531a5"/>
    </g>
  </g>
</svg>
