<svg xmlns="http://www.w3.org/2000/svg" width="70" height="70" viewBox="0 0 70 70">
  <g id="planning" transform="translate(7533 -2524)">
    <rect id="developers" width="70" height="70" rx="6" transform="translate(-7533 2524)" fill="#ebebeb"/>
    <g id="test" transform="translate(-7516.348 2540.655)">
      <path id="Path_899" data-name="Path 899" d="M36.523,13.023a1.392,1.392,0,0,0-.762-.756l-2.448-1a1.4,1.4,0,0,0-1.829.767L28.7,18.843V7.714a.545.545,0,0,0-.16-.385L21.369.16A.545.545,0,0,0,20.984,0H.545A.545.545,0,0,0,0,.545V4.75a.545.545,0,1,0,1.09,0V1.09H20.438V7.714a.545.545,0,0,0,.545.545h6.625V21.507l-2.4,5.871a.542.542,0,0,0-.04.233l.256,5.129a.545.545,0,0,0,.913.374l1.272-1.171V35.6H1.09V6.93A.545.545,0,1,0,0,6.93V36.145a.545.545,0,0,0,.545.545H28.153a.545.545,0,0,0,.545-.545V30.939l1.416-1.3a.55.55,0,0,0,.135-.195L32.72,23.4a.545.545,0,0,0-1.009-.413l-2.264,5.534-3.026-1.238,4.65-11.364L34.1,17.16l-1.6,3.921a.545.545,0,0,0,1.009.413l3.027-7.4A1.393,1.393,0,0,0,36.523,13.023ZM21.528,1.86l5.309,5.31H21.528ZM26.3,28.413l2.448,1-2.292,2.11Zm9.221-14.729-1.01,2.468-3.026-1.238,1.01-2.468a.314.314,0,0,1,.408-.171l2.448,1a.313.313,0,0,1,.171.407Zm0,0" fill="#017f9d"/>
      <path id="Path_900" data-name="Path 900" d="M158.462,83.016h-6.756a.545.545,0,1,0,0,1.09h6.756a.545.545,0,1,0,0-1.09Zm0,0" transform="translate(-140.328 -77.067)" fill="#017f9d"/>
      <path id="Path_901" data-name="Path 901" d="M51.748,167.907h4.308a.545.545,0,0,0,.545-.545V163.5l.813-1.035a.545.545,0,0,0-.857-.673l-.562.715H51.748a.545.545,0,0,0-.545.545v4.308A.545.545,0,0,0,51.748,167.907Zm.545-4.308h2.847l-.867,1.1-.606-.607a.545.545,0,1,0-.771.771l1.041,1.041a.545.545,0,0,0,.385.16h.033a.545.545,0,0,0,.4-.207l.761-.969v1.927H52.293Zm0,0" transform="translate(-47.534 -150.007)" fill="#017f9d"/>
      <path id="Path_902" data-name="Path 902" d="M176.037,186.273h-11.66a.545.545,0,1,0,0,1.09h11.66a.545.545,0,0,0,0-1.09Zm0,0" transform="translate(-152.092 -172.925)" fill="#017f9d"/>
      <path id="Path_903" data-name="Path 903" d="M164.377,223.863h9.372a.545.545,0,0,0,0-1.09h-9.372a.545.545,0,1,0,0,1.09Zm0,0" transform="translate(-152.092 -206.81)" fill="#017f9d"/>
      <path id="Path_904" data-name="Path 904" d="M51.2,267.221a.545.545,0,0,0,.545.545h4.308a.545.545,0,0,0,.545-.545v-3.859l.813-1.035a.545.545,0,1,0-.857-.673l-.562.715H51.748a.545.545,0,0,0-.545.545Zm1.09-3.763h2.847l-.867,1.1-.606-.607a.545.545,0,1,0-.771.771l1.041,1.041a.545.545,0,0,0,.385.16h.033a.545.545,0,0,0,.4-.207l.761-.969v1.927H52.293Zm0,0" transform="translate(-47.534 -242.711)" fill="#017f9d"/>
      <path id="Path_905" data-name="Path 905" d="M176.037,286.133h-11.66a.545.545,0,1,0,0,1.09h11.66a.545.545,0,1,0,0-1.09Zm0,0" transform="translate(-152.092 -265.629)" fill="#017f9d"/>
      <path id="Path_906" data-name="Path 906" d="M164.377,323.723h3.487a.545.545,0,0,0,0-1.09h-3.487a.545.545,0,1,0,0,1.09Zm0,0" transform="translate(-152.092 -299.513)" fill="#017f9d"/>
      <path id="Path_907" data-name="Path 907" d="M51.2,379.036a.545.545,0,0,0,.545.545h4.308a.545.545,0,0,0,.545-.545v-4.308a.545.545,0,0,0-.545-.545H51.748a.545.545,0,0,0-.545.545Zm1.09-3.763h3.218v3.218H52.293Zm0,0" transform="translate(-47.534 -347.37)" fill="#017f9d"/>
      <path id="Path_908" data-name="Path 908" d="M176.582,386.537a.545.545,0,0,0-.545-.545h-11.66a.545.545,0,1,0,0,1.09h11.66A.545.545,0,0,0,176.582,386.537Zm0,0" transform="translate(-152.092 -358.332)" fill="#017f9d"/>
      <path id="Path_909" data-name="Path 909" d="M164.377,422.488a.545.545,0,1,0,0,1.09h9.916a.545.545,0,1,0,0-1.09Zm0,0" transform="translate(-152.092 -392.213)" fill="#017f9d"/>
    </g>
  </g>
</svg>
