<svg xmlns="http://www.w3.org/2000/svg" width="70" height="70" viewBox="0 0 70 70">
  <g id="requirement-gathering" transform="translate(7626 -2524)">
    <rect id="developers" width="70" height="70" rx="6" transform="translate(-7626 2524)" fill="#ebebeb"/>
    <g id="Outline" transform="translate(-7612.428 2537.572)">
      <path id="Path_894" data-name="Path 894" d="M9,12.373l-.817-.817-.893.893L9,14.16l2.974-2.974-.893-.893Z" transform="translate(-1.949 -3.054)" fill="#f24e4e"/>
      <rect id="Rectangle_3" data-name="Rectangle 3" width="9.686" height="1.761" transform="translate(12.147 6.864)" fill="#f24e4e"/>
      <rect id="Rectangle_4" data-name="Rectangle 4" width="9.686" height="1.761" transform="translate(12.147 9.506)" fill="#f24e4e"/>
      <rect id="Rectangle_5" data-name="Rectangle 5" width="11.447" height="1.761" transform="translate(12.147 21.833)" fill="#f24e4e"/>
      <rect id="Rectangle_6" data-name="Rectangle 6" width="11.447" height="1.761" transform="translate(12.147 24.475)" fill="#f24e4e"/>
      <path id="Path_895" data-name="Path 895" d="M11.084,33.293,9.635,34.742,8.186,33.293l-.893.893,1.449,1.449L7.293,37.084l.893.893,1.449-1.449,1.449,1.449.893-.893-1.449-1.449,1.449-1.449Z" transform="translate(-1.949 -11.524)" fill="#f24e4e"/>
      <rect id="Rectangle_7" data-name="Rectangle 7" width="10.566" height="0.881" transform="translate(12.147 29.758)" fill="#f24e4e"/>
      <rect id="Rectangle_8" data-name="Rectangle 8" width="10.566" height="0.881" transform="translate(12.147 32.399)" fill="#f24e4e"/>
      <path id="Path_896" data-name="Path 896" d="M11.084,45.293,9.635,46.742,8.186,45.293l-.893.893,1.449,1.449L7.293,49.084l.893.893,1.449-1.449,1.449,1.449.893-.893-1.449-1.449,1.449-1.449Z" transform="translate(-1.949 -15.942)" fill="#f24e4e"/>
      <path id="Path_897" data-name="Path 897" d="M9,24.373l-.817-.817-.893.893L9,26.16l2.974-2.974-.893-.893Z" transform="translate(-1.949 -7.473)" fill="#f24e4e"/>
      <rect id="Rectangle_9" data-name="Rectangle 9" width="14.088" height="0.881" transform="translate(12.147 14.789)" fill="#f24e4e"/>
      <rect id="Rectangle_10" data-name="Rectangle 10" width="14.088" height="0.881" transform="translate(12.147 17.431)" fill="#f24e4e"/>
      <path id="Path_898" data-name="Path 898" d="M34.219,23.48H31.061v-.821A4.422,4.422,0,1,0,32.324,14H31.061V8.688L24.373,2H2V38.642H24.743v1.264H39.905V29.165A5.692,5.692,0,0,0,34.219,23.48Zm-1.9,3.01-.873-1.746H33.2Zm1.222,8.141-1.222,1.222L31.1,34.631l1.222-7.944ZM32.324,21.584a3.163,3.163,0,0,1-3.159-3.159v-.632h1.9a5.716,5.716,0,0,1,4.18,1.839,3.163,3.163,0,0,1-2.917,1.951ZM35.45,18.1a6.982,6.982,0,0,0-4.389-1.569h-1.9V15.267h3.159A3.152,3.152,0,0,1,35.45,18.1ZM24.743,4.157,28.9,8.318H24.743ZM3.264,37.378V3.264H23.48V9.581H29.8V14H27.9v4.422a4.417,4.417,0,0,0,1.9,3.624v1.468a5.692,5.692,0,0,0-5.054,5.649v8.213Zm35.378,1.264H26.007V29.165a4.426,4.426,0,0,1,4.043-4.4l.989,1.979-1.283,8.33,2.568,2.568,2.568-2.568-1.281-8.33.987-1.979a4.426,4.426,0,0,1,4.043,4.4Z" fill="#f24e4e"/>
    </g>
  </g>
</svg>
