<svg width="152" height="153" viewBox="0 0 152 153" fill="none" xmlns="http://www.w3.org/2000/svg">
<path d="M3.70351 10.7032L0 12.9725L25.9305 56.2218L35.9913 61.4609L32.0055 31.6094L20.9083 3.10449C14.8853 4.87711 9.07903 7.40911 3.70351 10.7032Z" fill="#EAD597"/>
<path d="M42.0494 0.00195312C34.9327 0.04827 27.7797 1.08209 20.9082 3.1043L35.9917 61.4672L42.0494 64.6221L45.9409 30.8921L42.0494 0.00195312Z" fill="#D7BA88"/>
<path d="M42.0488 0.00164494V64.6221L48.8414 61.3998L60.0681 33.4805L63.9094 3.09627C56.9055 0.985286 49.4969 -0.0470472 42.0488 0.00164494Z" fill="#C3A17B"/>
<path d="M84.8156 13.5838L81.2824 11.2206C75.9752 7.67048 70.1004 4.9623 63.9097 3.09668L48.8418 61.3965L58.1678 56.2242L84.8156 13.5838Z" fill="#AF866D"/>
<path d="M25.9307 56.2197V82.7831L42.0491 91.0908L47.1171 70.4995L42.0491 56.2197H25.9307Z" fill="#FFF0A5"/>
<path d="M42.0488 56.2197V91.0908L58.1674 82.7831V56.2197H42.0488Z" fill="#FEDB7C"/>
<path d="M25.9307 82.7832V135.879C25.9307 144.766 33.1613 151.997 42.0492 151.997L48.8417 116.965L42.0492 82.7832H25.9307Z" fill="#865050"/>
<path d="M42.0488 82.7832V151.997C50.9367 151.997 58.1674 144.766 58.1674 135.879V82.7832H42.0488Z" fill="#624A4F"/>
<path d="M68.6611 92.5135C68.6611 115.409 87.2247 134.048 110.091 134.178L119.295 94.9499L110.091 50.8496C87.2244 50.979 68.6611 69.6183 68.6611 92.5135Z" fill="#FF6699"/>
<path d="M110.331 50.8467C110.251 50.8467 110.172 50.8494 110.092 50.8497V134.18C110.172 134.18 110.251 134.183 110.331 134.183C133.308 134.183 152 115.49 152 92.5145C152 69.5386 133.307 50.8467 110.331 50.8467Z" fill="#FF3377"/>
<path d="M83.873 92.5161C83.873 107.026 95.6126 118.843 110.092 118.972L119.295 92.5161L110.092 66.0605C95.6126 66.1897 83.873 78.0067 83.873 92.5161Z" fill="#FAF9FF"/>
<path d="M68.1836 137.274V138.073C68.1836 145.753 74.4307 152.001 82.1096 152.001H110.092L116.464 143.819L110.092 133.602L68.1836 137.274Z" fill="#FF3377"/>
<path d="M111.821 133.45L110.092 133.602V152.003H138.074C145.753 152.003 152 145.754 152 138.073V137.274L111.821 133.45Z" fill="#E50070"/>
<path d="M68.1836 125.279V137.282H110.092L116.464 131.281L110.092 125.279H68.1836Z" fill="#FDCBC5"/>
<path d="M110.092 125.279H152V137.266H110.092V125.279Z" fill="#FDBEB6"/>
<path d="M110.331 66.0576C110.251 66.0576 110.171 66.06 110.092 66.0606V118.974C110.172 118.974 110.251 118.977 110.331 118.977C124.92 118.977 136.789 107.107 136.789 92.5171C136.789 77.9276 124.92 66.0576 110.331 66.0576Z" fill="#ECE6EA"/>
</svg>
