<svg width="170" height="172" viewBox="0 0 170 172" fill="none" xmlns="http://www.w3.org/2000/svg">
<path d="M74.8691 37.7969V81.6914H84.9997L92.3452 59.7441L84.9997 37.7969H74.8691Z" fill="#B3A19C"/>
<path d="M85 37.7969H95.5026V81.6914H85V37.7969Z" fill="#A58F89"/>
<path d="M9.5041 133.406V137.019C9.41346 137.019 9.34639 137 9.32846 136.993C10.3777 137.414 13.0147 141.614 13.0147 149.028C13.0147 156.443 10.3777 160.642 9.32812 161.064C9.34639 161.057 9.41346 161.038 9.5041 161.038V165.222H84.9998L98.1316 149.314L84.9998 133.406H9.5041Z" fill="#F4F4F7"/>
<path d="M25.2715 94.5947C25.2715 94.5947 24.731 99.5251 24.6729 99.4869C25.3027 99.9007 27.1315 102.88 27.1315 108.328C27.1315 113.777 25.303 116.757 24.6729 117.17C24.731 117.132 25.2715 119.82 25.2715 119.82H84.9996L98.1315 107.775L84.9996 94.5947H25.2715Z" fill="#F4F4F7"/>
<path d="M148.454 108.328C148.454 102.729 147.12 97.9275 144.884 94.5947H85V119.82H146.154C147.616 116.712 148.454 112.769 148.454 108.328Z" fill="#E2E2EB"/>
<path d="M161.683 134.782C161.442 134.301 161.185 133.847 160.92 133.406H85V165.221H160.562C160.96 164.613 161.336 163.966 161.683 163.274C163.626 159.385 164.696 154.326 164.696 149.028C164.696 143.73 163.626 138.671 161.683 134.782Z" fill="#E2E2EB"/>
<path d="M55.2585 68.958L44.9648 79.2462V95.8838H84.9998L94.1957 80.7616L84.9998 68.958H55.2585Z" fill="#FFDD46"/>
<path d="M0 161.037V171.009L85.0001 171.008L93.4048 168.656L85.0001 161.037H0Z" fill="#E96668"/>
<path d="M0 127.021V137.018L85.0001 137.017L93.4048 132.019L85.0001 127.021H0Z" fill="#E96668"/>
<path d="M65.5781 20.4155V26.854C65.5781 37.5649 74.2906 46.279 85 46.2793L96.475 25.3752L85 0.990234C74.2906 0.990234 65.5781 9.70427 65.5781 20.4155Z" fill="#43555C"/>
<path d="M85 0.990234V46.2793C95.709 46.2793 104.422 37.5653 104.422 26.854V20.4155C104.422 9.70427 95.709 0.990234 85 0.990234Z" fill="#344147"/>
<path d="M125.406 79.2466L115.113 68.958H85V95.8838H125.406V79.2466Z" fill="#FCBE00"/>
<path d="M17.3037 89.6582V99.6309H84.9999L92.3455 94.5983L84.9999 89.6582H17.3037Z" fill="#B8B5EB"/>
<path d="M17.9258 117.03V127.017H85.0001L93.4048 122.023L85.0001 117.029L17.9258 117.03Z" fill="#B8B5EB"/>
<path d="M136.877 89.6582H85V99.6233H136.877C141.676 99.6233 145.58 103.527 145.58 108.326C145.58 113.124 141.676 117.028 136.877 117.028H85V127.02H136.877C147.17 127.02 155.545 118.619 155.545 108.326C155.545 98.0323 147.171 89.6582 136.877 89.6582Z" fill="#8379C1"/>
<path d="M148.03 127.021H85V137.028H148.03C154.65 137.028 160.034 142.414 160.034 149.035C160.034 155.655 154.649 161.041 148.03 161.041H85V171.009H148.03C160.144 171.009 170 161.151 170 149.035C170 136.918 160.144 127.021 148.03 127.021Z" fill="#DE4849"/>
</svg>
