<svg width="150" height="150" viewBox="0 0 150 150" fill="none" xmlns="http://www.w3.org/2000/svg">
<path d="M0.078125 44.2988H42.0469V149.063H0.078125V44.2988Z" fill="#5AAAE0"/>
<path d="M106.754 44.2988H149.063V149.063H106.754V44.2988Z" fill="#5AAAE0"/>
<path d="M42.0469 0.9375H106.754V149.062H42.0469V0.9375Z" fill="#7DC7FF"/>
<path d="M79.72 115.899C81.1417 115.04 82.3185 113.829 83.1373 112.384C83.956 110.938 84.3893 109.307 84.3955 107.645C84.3611 105.049 83.3056 102.57 81.4574 100.746C79.6093 98.9221 77.1171 97.8994 74.5205 97.8994C71.9239 97.8994 69.4317 98.9221 67.5836 100.746C65.7354 102.57 64.6799 105.049 64.6455 107.645C64.6517 109.307 65.0849 110.938 65.9037 112.384C66.7225 113.829 67.8993 115.04 69.321 115.899C66.5131 116.923 64.0864 118.782 62.3676 121.227C60.6488 123.672 59.7206 126.585 59.708 129.574V149.066H89.333V129.574C89.3204 126.585 88.3922 123.672 86.6734 121.227C84.9547 118.782 82.5279 116.923 79.72 115.899Z" fill="#F73445"/>
<path d="M52.001 54.0439H56.9785V58.9131H52.001V54.0439Z" fill="#359ED8"/>
<path d="M52.001 63.79H56.9785V68.6592H52.001V63.79Z" fill="#359ED8"/>
<path d="M52.001 73.5332H56.9785V78.4043H52.001V73.5332Z" fill="#359ED8"/>
<path d="M52.001 83.2803H56.9785V88.1504H52.001V83.2803Z" fill="#359ED8"/>
<path d="M61.9561 54.0439H66.9335V58.9131H61.9561V54.0439Z" fill="#359ED8"/>
<path d="M61.9561 63.79H66.9335V68.6592H61.9561V63.79Z" fill="#359ED8"/>
<path d="M61.9561 73.5332H66.9335V78.4043H61.9561V73.5332Z" fill="#359ED8"/>
<path d="M61.9561 83.2803H66.9335V88.1504H61.9561V83.2803Z" fill="#359ED8"/>
<path d="M71.9111 54.0439H76.8886V58.9131H71.9111V54.0439Z" fill="#359ED8"/>
<path d="M71.9111 63.79H76.8886V68.6592H71.9111V63.79Z" fill="#359ED8"/>
<path d="M71.9111 73.5332H76.8886V78.4043H71.9111V73.5332Z" fill="#359ED8"/>
<path d="M71.9111 83.2803H76.8886V88.1504H71.9111V83.2803Z" fill="#359ED8"/>
<path d="M81.8662 54.0439H86.8437V58.9131H81.8662V54.0439Z" fill="#359ED8"/>
<path d="M61.9561 44.2988H66.9335V49.1689H61.9561V44.2988Z" fill="#359ED8"/>
<path d="M71.9111 44.2988H76.8886V49.1689H71.9111V44.2988Z" fill="#359ED8"/>
<path d="M81.8662 44.2988H86.8437V49.1689H81.8662V44.2988Z" fill="#359ED8"/>
<path d="M81.8662 63.79H86.8437V68.6592H81.8662V63.79Z" fill="#359ED8"/>
<path d="M81.8662 73.5332H86.8437V78.4043H81.8662V73.5332Z" fill="#359ED8"/>
<path d="M81.8662 83.2803H86.8437V88.1504H81.8662V83.2803Z" fill="#359ED8"/>
<path d="M91.8213 54.0439H96.7988V58.9131H91.8213V54.0439Z" fill="#359ED8"/>
<path d="M91.8213 63.79H96.7988V68.6592H91.8213V63.79Z" fill="#359ED8"/>
<path d="M91.8213 73.5332H96.7988V78.4043H91.8213V73.5332Z" fill="#359ED8"/>
<path d="M91.8213 83.2803H96.7988V88.1504H91.8213V83.2803Z" fill="#359ED8"/>
<path d="M29.254 125.571C30.1438 124.9 30.8665 124.032 31.3657 123.035C31.8649 122.039 32.1271 120.94 32.1318 119.826C32.1062 117.878 31.3146 116.02 29.9285 114.652C28.5423 113.284 26.6731 112.517 24.7256 112.517C22.778 112.517 20.9089 113.284 19.5227 114.652C18.1366 116.02 17.345 117.878 17.3193 119.826C17.3241 120.94 17.5863 122.039 18.0855 123.035C18.5847 124.032 19.3074 124.9 20.1972 125.571C17.9064 126.449 15.9343 127.998 14.5396 130.016C13.145 132.034 12.3928 134.427 12.3818 136.88V149.062H37.0693V136.88C37.0583 134.427 36.3062 132.034 34.9115 130.016C33.5168 127.998 31.5448 126.449 29.254 125.571Z" fill="#F7F769"/>
<path d="M51.6524 118.263C52.5423 117.592 53.2649 116.724 53.7641 115.727C54.2633 114.73 54.5255 113.632 54.5303 112.517C54.5046 110.57 53.7131 108.71 52.3269 107.342C50.9408 105.974 49.0716 105.207 47.124 105.207C45.1765 105.207 43.3073 105.974 41.9212 107.342C40.535 108.71 39.7434 110.57 39.7178 112.517C39.7225 113.632 39.9847 114.73 40.4839 115.727C40.9831 116.724 41.7058 117.592 42.5956 118.263C40.3048 119.141 38.3328 120.691 36.9381 122.709C35.5434 124.727 34.7913 127.12 34.7803 129.574V149.066H59.4678V129.573C59.4568 127.12 58.7046 124.727 57.3099 122.709C55.9153 120.691 53.9432 119.141 51.6524 118.263Z" fill="#FFC943"/>
<path d="M128.804 125.571C129.694 124.9 130.416 124.032 130.916 123.035C131.415 122.039 131.677 120.94 131.682 119.826C131.656 117.878 130.864 116.02 129.478 114.652C128.092 113.284 126.223 112.517 124.275 112.517C122.328 112.517 120.459 113.284 119.073 114.652C117.686 116.02 116.895 117.878 116.869 119.826C116.874 120.94 117.136 122.039 117.635 123.035C118.134 124.032 118.857 124.9 119.747 125.571C117.456 126.449 115.484 127.998 114.089 130.016C112.695 132.034 111.943 134.427 111.932 136.88V149.062H136.619V136.88C136.608 134.427 135.856 132.034 134.461 130.016C133.067 127.998 131.095 126.449 128.804 125.571Z" fill="#F7F769"/>
<path d="M106.404 118.263C107.294 117.592 108.017 116.724 108.516 115.727C109.015 114.73 109.277 113.632 109.282 112.517C109.257 110.57 108.465 108.71 107.079 107.342C105.693 105.974 103.824 105.207 101.876 105.207C99.9284 105.207 98.0593 105.974 96.6731 107.342C95.287 108.71 94.4954 110.57 94.4697 112.517C94.4745 113.632 94.7367 114.73 95.2359 115.727C95.7351 116.724 96.4578 117.592 97.3476 118.263C95.0568 119.141 93.0847 120.691 91.69 122.709C90.2954 124.727 89.5432 127.12 89.5322 129.574V149.066H114.22V129.573C114.209 127.12 113.457 124.727 112.062 122.709C110.667 120.691 108.695 119.141 106.404 118.263Z" fill="#FFC943"/>
<path d="M119.197 61.3535H124.175V100.34H119.197V61.3535Z" fill="#005889"/>
<path d="M134.13 61.3535H139.107V100.34H134.13V61.3535Z" fill="#005889"/>
<path d="M9.69238 61.3535H14.6699V100.34H9.69238V61.3535Z" fill="#005889"/>
<path d="M24.625 61.3535H29.6025V100.34H24.625V61.3535Z" fill="#005889"/>
<path d="M54.4902 7.75293H94.3102V32.1201H54.4902V7.75293Z" fill="#359ED8"/>
</svg>
