<svg width="166" height="166" viewBox="0 0 166 166" fill="none" xmlns="http://www.w3.org/2000/svg">
<path d="M117.291 105.139C90.9748 105.139 69.5654 83.7277 69.5654 57.41V20.9899C69.5654 14.436 73.6724 8.6063 79.7854 6.48293C104.672 -2.16098 129.909 -2.16098 154.796 6.48293C160.909 8.6063 165.016 14.436 165.016 20.9899V57.41C165.016 83.7277 143.606 105.139 117.291 105.139Z" fill="#A4E9FF"/>
<path d="M154.796 6.48285C142.353 2.16084 129.822 0 117.291 0V105.136C143.607 105.136 165.016 83.7253 165.016 57.4082V20.9891C165.016 14.4354 160.909 8.60583 154.796 6.48285Z" fill="#91BBFF"/>
<path d="M136.704 84.9111H97.8768C95.1965 84.9111 93.0234 82.7379 93.0234 80.0573C93.0234 66.6753 103.91 55.7881 117.29 55.7881C130.671 55.7881 141.557 66.6753 141.557 80.0573C141.557 82.7382 139.384 84.9111 136.704 84.9111Z" fill="#FF5E82"/>
<path d="M137.513 42.8408C133.16 42.8408 129.069 41.1466 125.992 38.0703C124.096 36.1756 124.096 33.1038 125.992 31.209C127.887 29.3146 130.96 29.3146 132.856 31.209C134.1 32.4527 135.753 33.1374 137.513 33.1374C139.272 33.1374 140.926 32.4527 142.17 31.209C144.065 29.3146 147.138 29.3143 149.034 31.209C150.929 33.1038 150.929 36.1756 149.034 38.0703C145.956 41.1466 141.865 42.8408 137.513 42.8408Z" fill="#453D81"/>
<path d="M97.0682 42.8408C92.716 42.8408 88.6246 41.1466 85.5475 38.0703C83.6521 36.1756 83.6521 33.1038 85.5475 31.209C87.4426 29.3146 90.5158 29.3146 92.4112 31.209C93.6553 32.4527 95.309 33.1374 97.0685 33.1374C98.8281 33.1374 100.482 32.4527 101.726 31.209C103.621 29.3146 106.694 29.3143 108.59 31.209C110.485 33.1038 110.485 36.1756 108.59 38.0703C105.512 41.1466 101.42 42.8408 97.0682 42.8408Z" fill="#5E54AC"/>
<path d="M47.7251 165.662C21.4093 165.662 0 144.253 0 117.937V81.5203C0 74.967 4.10695 69.1378 10.22 67.0146C35.1069 58.3714 60.3433 58.3714 85.2303 67.0146C91.3433 69.1378 95.4503 74.967 95.4503 81.5203V117.937C95.4503 144.253 74.0409 165.662 47.7251 165.662Z" fill="#FFE67A"/>
<path d="M85.2297 67.0145C72.7863 62.6932 60.2554 60.5322 47.7246 60.5322V165.658C74.0404 165.658 95.4497 144.25 95.4497 117.935V81.5194C95.4497 74.9663 91.3428 69.1373 85.2297 67.0145Z" fill="#FFC336"/>
<path d="M47.725 148.678C34.3442 148.678 23.458 137.791 23.458 124.409C23.458 121.729 25.631 119.556 28.3114 119.556H67.1386C69.819 119.556 71.992 121.729 71.992 124.409C71.992 137.791 61.1058 148.678 47.725 148.678Z" fill="#FF5E82"/>
<path d="M76.0364 100.257C74.7943 100.257 73.5521 99.7831 72.6048 98.8351C71.3607 97.591 69.707 96.906 67.9474 96.906C66.1879 96.906 64.5342 97.591 63.2901 98.8351C61.395 100.73 58.3219 100.731 56.4264 98.8351C54.531 96.9397 54.531 93.8668 56.4264 91.9714C59.5038 88.894 63.5949 87.1992 67.9471 87.1992C72.2993 87.1992 76.3907 88.894 79.4678 91.9714C81.3632 93.8668 81.3632 96.9397 79.4678 98.8351C78.5207 99.7831 77.2783 100.257 76.0364 100.257Z" fill="#453D81"/>
<path d="M35.5921 100.263C34.3499 100.263 33.1078 99.7891 32.1604 98.8414C30.9163 97.5981 29.2626 96.9134 27.5031 96.9134C25.7436 96.9134 24.0899 97.5981 22.8458 98.8418C20.9507 100.736 17.8775 100.737 15.9821 98.8418C14.0867 96.947 14.0867 93.8752 15.9821 91.9805C19.0595 88.9042 23.1509 87.21 27.5031 87.21C31.8553 87.21 35.9467 88.9042 39.0238 91.9805C40.9192 93.8752 40.9192 96.947 39.0238 98.8418C38.0764 99.7891 36.8339 100.263 35.5921 100.263Z" fill="#5E54AC"/>
<path d="M67.1382 119.556H47.7246V148.678C61.1054 148.678 71.9916 137.791 71.9916 124.409C71.9916 121.729 69.8186 119.556 67.1382 119.556Z" fill="#B7457D"/>
<path d="M136.705 84.9111H117.291V55.7881C130.672 55.7881 141.558 66.6753 141.558 80.0573C141.558 82.7382 139.385 84.9111 136.705 84.9111Z" fill="#B7457D"/>
</svg>
