<svg width="170" height="132" viewBox="0 0 170 132" fill="none" xmlns="http://www.w3.org/2000/svg">
<path d="M130.316 0.25785C117.831 0.276007 106.707 6.07076 99.4565 15.1092C98.284 16.5695 96.0571 16.5695 94.8859 15.1092C87.6357 6.07076 76.51 0.276007 64.0251 0.25785C42.2356 0.22802 24.3811 18.0104 24.3409 39.7991C24.2657 80.8902 79.6293 121.186 93.8651 130.869C95.8612 132.226 98.4811 132.226 100.476 130.869C114.713 121.186 170.075 80.8902 170 39.8004C169.96 18.0117 152.105 0.22802 130.316 0.25785Z" fill="#FF592A"/>
<path d="M66.8848 0.368164C67.8873 1.50045 69.5527 1.65739 70.7382 0.836384C69.4736 0.618487 68.1883 0.462846 66.8848 0.368164Z" fill="#F63511"/>
<path d="M133.23 0.361328C138.638 7.12216 141.888 15.6727 141.905 24.9522C141.98 65.1684 88.9548 104.618 73.3506 115.355C82.0859 122.63 89.72 128.047 93.8652 130.866C95.8613 132.223 98.4799 132.223 100.476 130.866C114.713 121.184 170.075 80.8883 170 39.7993C169.961 18.9903 153.675 1.83722 133.23 0.361328Z" fill="#F63511"/>
<path d="M72.2883 67.9707C71.1612 67.9707 70.1651 67.2328 69.837 66.1538L62.0498 40.5772H38.7272C37.3109 40.5772 36.1631 39.4295 36.1631 38.0146C36.1631 36.5998 37.3109 35.4521 38.7272 35.4521H63.9499C65.077 35.4521 66.0731 36.1887 66.4013 37.2677L72.2896 56.6064L80.8874 28.3634C81.2156 27.2845 82.2117 26.5479 83.3387 26.5479C84.4671 26.5479 85.4632 27.2845 85.7914 28.3634L89.5124 40.5876H112.054C113.471 40.5876 114.618 41.7353 114.618 43.1502C114.618 44.5664 113.471 45.7141 112.054 45.7141H87.6136C86.4853 45.7141 85.4892 44.9762 85.161 43.8972L83.3387 37.9109L74.741 66.1538C74.4128 67.2328 73.4167 67.9707 72.2883 67.9707Z" fill="#FFC5B2"/>
<path d="M19.7676 81.9961H92.1426V97.8623H19.7676V81.9961Z" fill="#848489"/>
<path d="M77.4035 81.9961V85.9617C77.4035 88.9025 75.0196 91.2867 72.0793 91.2867H19.7676V97.8623H92.1426V81.9961H77.4035Z" fill="#545353"/>
<path d="M96.1697 114.229H90.3916C88.5576 114.229 87.0713 112.741 87.0713 110.908V69.2012C87.0713 67.3672 88.5576 65.8809 90.3916 65.8809H96.1697C98.0036 65.8809 99.49 67.3672 99.49 69.2012V110.908C99.49 112.741 98.0036 114.229 96.1697 114.229Z" fill="#848489"/>
<path d="M108.59 108.097H102.811C100.977 108.097 99.4902 106.609 99.4902 104.777V75.3309C99.4902 73.497 100.977 72.0107 102.811 72.0107H108.59C110.424 72.0107 111.91 73.497 111.91 75.3309V104.777C111.91 106.609 110.424 108.097 108.59 108.097Z" fill="#848489"/>
<path d="M15.7393 65.8809H21.5187C23.3527 65.8809 24.8391 67.3672 24.8391 69.2012V110.908C24.8391 112.741 23.3527 114.229 21.5187 114.229H15.7393C13.9066 114.229 12.4189 112.741 12.4189 110.908V69.2012C12.4189 67.3672 13.9066 65.8809 15.7393 65.8809Z" fill="#848489"/>
<path d="M3.32032 72.0107H9.09845C10.9324 72.0107 12.4188 73.497 12.4188 75.3309V104.777C12.4188 106.609 10.9324 108.097 9.09845 108.097H3.32032C1.48636 108.097 0 106.609 0 104.777V75.3309C0 73.497 1.48636 72.0107 3.32032 72.0107Z" fill="#848489"/>
<path d="M95.9685 65.8809H90.6846C92.6301 65.8809 94.2059 67.458 94.2059 69.4023V110.707C94.2059 112.651 92.6301 114.229 90.6846 114.229H95.9685C97.914 114.229 99.4899 112.651 99.4899 110.707V69.4023C99.4899 67.458 97.914 65.8809 95.9685 65.8809Z" fill="#545353"/>
<path d="M108.388 72.0098H103.104C105.049 72.0098 106.626 73.5868 106.626 75.5309V104.574C106.626 106.518 105.049 108.095 103.104 108.095H108.388C110.333 108.095 111.91 106.518 111.91 104.574V75.5309C111.91 73.5868 110.333 72.0098 108.388 72.0098Z" fill="#545353"/>
<path d="M21.3172 65.8809H16.0332C17.9774 65.8809 19.5546 67.458 19.5546 69.4023V110.707C19.5546 112.651 17.9774 114.229 16.0332 114.229H21.3172C23.2614 114.229 24.8386 112.651 24.8386 110.707V69.4023C24.8386 67.458 23.2614 65.8809 21.3172 65.8809Z" fill="#545353"/>
<path d="M8.89726 72.0098H3.61328C5.55878 72.0098 7.13463 73.5868 7.13463 75.5309V104.574C7.13463 106.518 5.55878 108.095 3.61328 108.095H8.89726C10.8428 108.095 12.4186 106.518 12.4186 104.574V75.5309C12.4186 73.5868 10.8428 72.0098 8.89726 72.0098Z" fill="#545353"/>
</svg>
