<svg width="175" height="167" viewBox="0 0 175 167" fill="none" xmlns="http://www.w3.org/2000/svg">
<path d="M5.62207 68.7979H169.151V166.417H5.62207V68.7979Z" fill="#ECF5FF"/>
<path d="M158.646 68.7979H169.152V166.417H158.646V68.7979Z" fill="#DCEAFC"/>
<path d="M87.3869 37.9277C85.9362 37.9277 84.7607 36.7458 84.7607 35.2879V12.6965C84.7607 11.2382 85.9365 10.0566 87.3869 10.0566C88.8373 10.0566 90.0131 11.2385 90.0131 12.6965V35.2879C90.0131 36.7458 88.8376 37.9277 87.3869 37.9277Z" fill="#ECF5FF"/>
<path d="M107.623 16.4053H84.7607V3.03674C84.7607 1.67657 85.8583 0.574219 87.2119 0.574219H107.623C108.976 0.574219 110.074 1.67691 110.074 3.03674V13.9427C110.074 15.3029 108.976 16.4053 107.623 16.4053Z" fill="#DB8894"/>
<path d="M107.622 0.574219H97.1172C98.4711 0.574219 99.5683 1.67691 99.5683 3.03674V13.9427C99.5683 15.3029 98.4707 16.4053 97.1172 16.4053H107.622C108.976 16.4053 110.073 15.3026 110.073 13.9427V3.03674C110.073 1.67691 108.976 0.574219 107.622 0.574219V0.574219Z" fill="#D4717F"/>
<path d="M171.953 74.1758H2.82121C1.46735 74.1758 0.370117 73.0728 0.370117 71.7126V58.3613C0.370117 57.0007 1.46769 55.8981 2.82121 55.8981H38.2993C39.4894 55.8981 40.66 55.5934 41.7005 55.0123L86.1964 30.1703C86.9367 29.757 87.8368 29.757 88.5771 30.1703L133.073 55.0123C134.114 55.593 135.284 55.8981 136.474 55.8981H171.952C173.306 55.8981 174.403 57.0011 174.403 58.3613V71.7126C174.404 73.0728 173.307 74.1758 171.953 74.1758Z" fill="#BDD8FC"/>
<path d="M171.952 55.8887H161.447C162.801 55.8887 163.898 56.9925 163.898 58.3538V71.7155C163.898 73.0772 162.801 74.1807 161.447 74.1807H171.952C173.306 74.1807 174.403 73.0768 174.403 71.7155V58.3538C174.403 56.9925 173.306 55.8887 171.952 55.8887Z" fill="#9DC7FB"/>
<path d="M87.3871 64.1787C92.5428 64.1787 96.7224 59.9779 96.7224 54.7959C96.7224 49.6139 92.5428 45.4131 87.3871 45.4131C82.2313 45.4131 78.0518 49.6139 78.0518 54.7959C78.0518 59.9779 82.2313 64.1787 87.3871 64.1787Z" fill="#4F6D8F"/>
<path d="M87.3874 45.4131C85.4394 45.4131 83.6314 46.0133 82.1348 47.0393C84.5991 48.7284 86.2174 51.5718 86.2174 54.7959C86.2174 58.02 84.5991 60.8634 82.1348 62.5525C83.6314 63.5781 85.4394 64.1787 87.3874 64.1787C92.5431 64.1787 96.7227 59.9779 96.7227 54.7959C96.7227 49.6136 92.5431 45.4131 87.3874 45.4131Z" fill="#455E7E"/>
<path d="M26.6328 74.1758H44.6248V164.877H26.6328V74.1758Z" fill="#BDD8FC"/>
<path d="M34.1201 74.1758H44.625V164.877H34.1201V74.1758Z" fill="#9DC7FB"/>
<path d="M49.8769 74.1758H21.3799V81.2142C21.3799 83.1579 22.9475 84.7334 24.8816 84.7334H46.3755C48.3095 84.7334 49.8772 83.1579 49.8772 81.2142V74.1758H49.8769Z" fill="#4F6D8F"/>
<path d="M39.3718 74.1758V81.2142C39.3718 83.1576 37.8042 84.7334 35.8701 84.7334H46.375C48.3091 84.7334 49.8767 83.1579 49.8767 81.2142V74.1758H39.3718Z" fill="#455E7E"/>
<path d="M130.149 74.1758H148.141V164.877H130.149V74.1758Z" fill="#BDD8FC"/>
<path d="M137.637 74.1758H148.142V164.877H137.637V74.1758Z" fill="#9DC7FB"/>
<path d="M153.394 74.1758H124.896V81.2142C124.896 83.1579 126.464 84.7334 128.398 84.7334H149.892C151.826 84.7334 153.394 83.1579 153.394 81.2142V74.1758H153.394Z" fill="#4F6D8F"/>
<path d="M142.888 74.1758V81.2142C142.888 83.1576 141.321 84.7334 139.387 84.7334H149.892C151.826 84.7334 153.393 83.1579 153.393 81.2142V74.1758H142.888Z" fill="#455E7E"/>
<path d="M105.256 164.878H69.5186V119.25C69.5186 117.306 71.0862 115.73 73.0203 115.73H101.754C103.688 115.73 105.256 117.306 105.256 119.25V164.878H105.256Z" fill="#CE9775"/>
<path d="M101.753 115.73H91.248C93.1818 115.73 94.7498 117.306 94.7498 119.25V164.878H105.255V119.25C105.255 117.306 103.687 115.73 101.753 115.73Z" fill="#C6855B"/>
<path d="M110.026 100.618H64.747C63.3931 100.618 62.2959 99.5159 62.2959 98.1566V91.7701C62.2959 90.4105 63.3935 89.3086 64.747 89.3086H110.026C111.38 89.3086 112.477 90.4108 112.477 91.7701V98.1566C112.478 99.5163 111.38 100.618 110.026 100.618Z" fill="#DB8894"/>
<path d="M110.026 89.3086H99.5215C100.875 89.3086 101.973 90.4108 101.973 91.7701V98.1566C101.973 99.5163 100.875 100.618 99.5215 100.618H110.026C111.38 100.618 112.477 99.5163 112.477 98.1566V91.7701C112.477 90.4105 111.38 89.3086 110.026 89.3086Z" fill="#D4717F"/>
</svg>
