<svg width="154" height="155" viewBox="0 0 154 155" fill="none" xmlns="http://www.w3.org/2000/svg">
<path d="M33.7299 72.4106L21.6971 37.742C21.1882 35.7116 19.9311 33.9485 18.1776 32.8056C16.4241 31.6627 14.3037 31.2245 12.2409 31.5787C11.1831 31.8043 10.1821 32.2423 9.2986 32.8664C8.41513 33.4904 7.66758 34.2873 7.10128 35.2089C6.53499 36.1305 6.16173 37.1576 6.00416 38.2277C5.84659 39.2979 5.90799 40.389 6.18462 41.4347L18.5627 79.6631L33.7299 72.4106Z" fill="#FFAC96"/>
<path d="M120.271 72.4106L132.303 37.742C132.812 35.7116 134.069 33.9485 135.823 32.8056C137.576 31.6627 139.697 31.2245 141.76 31.5787C142.817 31.8043 143.818 32.2423 144.702 32.8664C145.585 33.4904 146.333 34.2873 146.899 35.2089C147.465 36.1305 147.839 37.1576 147.996 38.2277C148.154 39.2979 148.092 40.389 147.816 41.4347L135.438 79.6631L120.271 72.4106Z" fill="#FFAC96"/>
<path d="M58.5287 86.7835L35.0474 73.018C33.4226 72.0795 31.5182 71.7458 29.6711 72.0759C27.8239 72.4059 26.153 73.3786 24.9537 74.8217L16.3846 48.3666C15.8757 46.3363 14.6186 44.5733 12.8651 43.4305C11.1116 42.2877 8.99115 41.8495 6.92837 42.2037C5.87056 42.4293 4.86957 42.8673 3.9861 43.4913C3.10263 44.1152 2.35508 44.9121 1.78878 45.8337C1.22248 46.7552 0.849234 47.7822 0.691663 48.8523C0.534093 49.9224 0.595484 51.0133 0.872117 52.059L12.4268 95.1724C12.9568 97.1889 14.0758 99.0015 15.6409 100.379L33.5971 116.344C34.7174 117.342 35.6138 118.565 36.2273 119.934C36.8408 121.303 37.1575 122.786 37.1565 124.287V132.787H69.0315V105.118C69.0318 101.411 68.0626 97.7691 66.2201 94.5528C64.3777 91.3366 61.7262 88.6581 58.5287 86.7835Z" fill="#FFBCAB"/>
<path d="M147.072 42.2037C145.009 41.8495 142.889 42.2877 141.135 43.4305C139.382 44.5733 138.125 46.3363 137.616 48.3666L129.036 74.8217C127.837 73.3786 126.166 72.4059 124.319 72.0759C122.471 71.7458 120.567 72.0795 118.942 73.018L95.4609 86.7835C92.2654 88.6595 89.616 91.3385 87.7755 94.5546C85.935 97.7708 84.9674 101.412 84.9688 105.118V132.787H116.844V124.287C116.843 122.786 117.159 121.303 117.773 119.934C118.386 118.565 119.283 117.342 120.403 116.344L138.359 100.379C139.924 99.0015 141.043 97.1889 141.573 95.1724L153.128 52.059C153.405 51.0133 153.466 49.9224 153.309 48.8523C153.151 47.7822 152.778 46.7552 152.211 45.8337C151.645 44.9121 150.898 44.1152 150.014 43.4913C149.131 42.8673 148.13 42.4293 147.072 42.2037Z" fill="#FFBCAB"/>
<path d="M82.3125 132.781V154.031H119.5V132.781H116.844H84.9688H82.3125Z" fill="#006DF0"/>
<path d="M71.6875 132.781H69.0312H37.1562H34.5V154.031H71.6875V132.781Z" fill="#006DF0"/>
<path d="M112.7 41.3047L110.814 43.1909L76.9997 77.0088L43.1856 43.1909L41.2997 41.3047C39.0025 39.1019 37.1682 36.4625 35.9043 33.5414C34.6405 30.6202 33.9726 27.4761 33.9397 24.2934C33.9069 21.1107 34.5098 17.9535 35.7131 15.0069C36.9164 12.0603 38.6958 9.38359 40.9471 7.13383C43.1984 4.88408 45.8761 3.10653 48.8233 1.90542C51.7705 0.704313 54.9279 0.103824 58.1102 0.13917C61.2925 0.174516 64.4358 0.844986 67.3556 2.11126C70.2754 3.37754 72.913 5.21413 75.1138 7.51333L76.9997 9.39948L78.8856 7.51333C81.0864 5.21413 83.724 3.37754 86.6438 2.11126C89.5636 0.844986 92.7069 0.174516 95.8892 0.13917C99.0715 0.103824 102.229 0.704313 105.176 1.90542C108.123 3.10653 110.801 4.88408 113.052 7.13383C115.304 9.38359 117.083 12.0603 118.286 15.0069C119.49 17.9535 120.092 21.1107 120.06 24.2934C120.027 27.4761 119.359 30.6202 118.095 33.5414C116.831 36.4625 114.997 39.1019 112.7 41.3047Z" fill="#D80027"/>
<path d="M112.7 7.51225C110.173 4.95809 107.097 3.01359 103.706 1.8265C100.314 0.639415 96.6971 0.24098 93.1288 0.66147C97.6024 1.15729 101.845 2.90687 105.368 5.70867C108.891 8.51047 111.55 12.2505 113.04 16.4979C114.53 20.7453 114.79 25.3273 113.79 29.716C112.79 34.1047 110.571 38.1216 107.388 41.304L105.502 43.19L74.3438 74.3466L77 77.0029L110.814 43.1873L112.7 41.3013C117.177 36.8187 119.691 30.7422 119.691 24.4068C119.691 18.0713 117.177 11.9949 112.7 7.51225Z" fill="#BD0022"/>
<path d="M82.3125 50.4463V39.8151H92.9375V29.1839H82.3125V18.5527H71.6875V29.1839H61.0625V39.8151H71.6875V50.4463H82.3125Z" fill="#F1F2F2"/>
<path d="M126.922 81.5159L109.167 91.3436C108.66 91.6374 108.284 92.1137 108.115 92.6754C107.947 93.2371 107.999 93.8418 108.262 94.3662C108.402 94.6467 108.598 94.8955 108.838 95.0974C109.078 95.2992 109.357 95.4498 109.657 95.5399C109.957 95.6299 110.273 95.6576 110.584 95.6211C110.896 95.5846 111.196 95.4848 111.468 95.3278L126.922 86.8282C128.535 85.8928 129.77 84.4213 130.41 82.6697C131.05 80.9181 131.056 78.9974 130.425 77.2422C129.811 79.0425 128.567 80.5602 126.922 81.5159Z" fill="#FFAC96"/>
<path d="M27.0786 81.5159L44.833 91.3436C45.3404 91.6374 45.7167 92.1137 45.885 92.6754C46.0533 93.2371 46.001 93.8418 45.7388 94.3662C45.5986 94.6467 45.4025 94.8955 45.1626 95.0974C44.9226 95.2992 44.6439 95.4498 44.3436 95.5399C44.0432 95.6299 43.7276 95.6576 43.4162 95.6211C43.1048 95.5846 42.8041 95.4848 42.5327 95.3278L27.0786 86.8282C25.4651 85.8928 24.2308 84.4213 23.5906 82.6697C22.9505 80.9181 22.9449 78.9974 23.575 77.2422C24.1896 79.0425 25.4338 80.5602 27.0786 81.5159Z" fill="#FFAC96"/>
</svg>
