<svg width="152" height="152" viewBox="0 0 152 152" fill="none" xmlns="http://www.w3.org/2000/svg">
<path d="M137.658 81.4594H121.562L116.499 96.2588L111.437 81.4594H81.0615L75.999 96.2588L70.9365 81.4594H40.5615L35.499 96.2588L30.4365 81.4594H14.3396C10.5528 81.4594 6.92114 79.9549 4.24348 77.277C1.56582 74.5991 0.0615234 70.9671 0.0615234 67.1799V14.3419C0.0615201 12.4667 0.430832 10.6099 1.14837 8.87743C1.86591 7.14497 2.91763 5.57082 4.24347 4.24485C5.56932 2.91888 7.14333 1.86707 8.87563 1.14946C10.6079 0.431848 12.4646 0.0625 14.3396 0.0625H137.658C141.445 0.0625 145.077 1.56694 147.755 4.24485C150.432 6.92276 151.937 10.5548 151.937 14.3419V67.1799C151.937 70.9671 150.432 74.5991 147.755 77.277C145.077 79.9549 141.445 81.4594 137.658 81.4594Z" fill="#82D8D4"/>
<path d="M132.596 5.125H19.4022C11.5166 5.125 5.12402 11.5167 5.12402 19.4014V61.7149C5.12402 69.5995 11.5166 75.9912 19.4022 75.9912H132.596C140.482 75.9912 146.874 69.5995 146.874 61.7149V19.4014C146.874 11.5167 140.482 5.125 132.596 5.125Z" fill="#B3F2ED"/>
<path d="M121.562 58.2812C131.347 58.2812 139.28 50.3483 139.28 40.5625C139.28 30.7767 131.347 22.8438 121.562 22.8438C111.776 22.8438 103.843 30.7767 103.843 40.5625C103.843 50.3483 111.776 58.2812 121.562 58.2812Z" fill="#E9CD4B"/>
<path d="M18.6497 124.672C20.3842 123.418 21.6767 121.647 22.3416 119.612C23.0066 117.578 23.0098 115.385 22.3509 113.349C21.6919 111.313 20.4046 109.538 18.6739 108.279C16.9432 107.02 14.858 106.342 12.7177 106.342C10.5775 106.342 8.49233 107.02 6.76159 108.279C5.03085 109.538 3.74358 111.313 3.08462 113.349C2.42565 115.385 2.42888 117.578 3.09385 119.612C3.75882 121.647 5.05132 123.418 6.78576 124.672C4.82855 125.336 3.12805 126.596 1.92231 128.274C0.716575 129.953 0.0659516 131.967 0.0615234 134.034V151.937H25.374V134.034C25.3696 131.967 24.719 129.953 23.5132 128.274C22.3075 126.596 20.607 125.336 18.6497 124.672Z" fill="#816892"/>
<path d="M2.59277 116.5C2.59494 118.097 2.97618 119.67 3.70513 121.091C4.43407 122.512 5.4899 123.739 6.78576 124.672C4.82855 125.336 3.12805 126.596 1.92231 128.275C0.716575 129.954 0.0659516 131.967 0.0615234 134.034V151.938H12.7178V106.375C10.0325 106.375 7.45712 107.442 5.55832 109.341C3.65951 111.239 2.59277 113.815 2.59277 116.5Z" fill="#6B567A"/>
<path d="M61.681 124.672C63.4154 123.418 64.7079 121.647 65.3729 119.612C66.0379 117.578 66.0411 115.385 65.3821 113.349C64.7232 111.313 63.4359 109.538 61.7052 108.279C59.9744 107.02 57.8892 106.342 55.749 106.342C53.6088 106.342 51.5236 107.02 49.7928 108.279C48.0621 109.538 46.7748 111.313 46.1159 113.349C45.4569 115.385 45.4601 117.578 46.1251 119.612C46.7901 121.647 48.0826 123.418 49.817 124.672C47.8598 125.336 46.1593 126.596 44.9536 128.274C43.7478 129.953 43.0972 131.967 43.0928 134.034V151.937H68.4053V134.034C68.4008 131.967 67.7502 129.953 66.5445 128.274C65.3387 126.596 63.6382 125.336 61.681 124.672Z" fill="#E9C51E"/>
<path d="M45.624 116.5C45.6262 118.097 46.0074 119.67 46.7364 121.091C47.4653 122.512 48.5212 123.739 49.817 124.672C47.8598 125.336 46.1593 126.596 44.9536 128.275C43.7478 129.954 43.0972 131.967 43.0928 134.034V151.938H55.749V106.375C53.0637 106.375 50.4884 107.442 48.5896 109.341C46.6908 111.239 45.624 113.815 45.624 116.5Z" fill="#D4B31B"/>
<path d="M102.181 124.672C103.915 123.418 105.208 121.647 105.873 119.612C106.538 117.578 106.541 115.385 105.882 113.349C105.223 111.313 103.936 109.538 102.205 108.279C100.474 107.02 98.3892 106.342 96.249 106.342C94.1088 106.342 92.0236 107.02 90.2928 108.279C88.5621 109.538 87.2748 111.313 86.6159 113.349C85.9569 115.385 85.9601 117.578 86.6251 119.612C87.2901 121.647 88.5826 123.418 90.317 124.672C88.3598 125.336 86.6593 126.596 85.4536 128.274C84.2478 129.953 83.5972 131.967 83.5928 134.034V151.937H108.905V134.034C108.901 131.967 108.25 129.953 107.044 128.274C105.839 126.596 104.138 125.336 102.181 124.672Z" fill="#DE2F55"/>
<path d="M86.124 116.5C86.1262 118.097 86.5074 119.67 87.2364 121.091C87.9653 122.512 89.0212 123.739 90.317 124.672C88.3598 125.336 86.6593 126.596 85.4536 128.275C84.2478 129.954 83.5972 131.967 83.5928 134.034V151.938H96.249V106.375C93.5637 106.375 90.9884 107.442 89.0896 109.341C87.1908 111.239 86.124 113.815 86.124 116.5Z" fill="#C43755"/>
<path d="M145.212 124.672C146.947 123.418 148.239 121.647 148.904 119.612C149.569 117.578 149.572 115.385 148.913 113.349C148.254 111.313 146.967 109.538 145.236 108.279C143.506 107.02 141.42 106.342 139.28 106.342C137.14 106.342 135.055 107.02 133.324 108.279C131.593 109.538 130.306 111.313 129.647 113.349C128.988 115.385 128.991 117.578 129.656 119.612C130.321 121.647 131.614 123.418 133.348 124.672C131.391 125.336 129.691 126.596 128.485 128.274C127.279 129.953 126.628 131.967 126.624 134.034V151.937H151.937V134.034C151.932 131.967 151.281 129.953 150.076 128.274C148.87 126.596 147.169 125.336 145.212 124.672Z" fill="#F79694"/>
<path d="M129.155 116.5C129.157 118.097 129.539 119.67 130.268 121.091C130.997 122.512 132.052 123.739 133.348 124.672C131.391 125.336 129.691 126.596 128.485 128.275C127.279 129.954 126.628 131.967 126.624 134.034V151.938H139.28V106.375C136.595 106.375 134.02 107.442 132.121 109.341C130.222 111.239 129.155 113.815 129.155 116.5Z" fill="#D9918F"/>
<path d="M17.0393 34.7529L13.46 31.1748L16.734 27.9002L15.2497 26.4163C14.7796 25.946 14.4068 25.3879 14.1525 24.7736C13.8983 24.1593 13.7675 23.501 13.7678 22.8362C13.768 22.1714 13.8992 21.5132 14.1539 20.8991C14.4086 20.285 14.7818 19.7271 15.2522 19.2572L18.5238 15.9902L22.1006 19.5709L18.8291 22.8379L20.3134 24.3218C21.2607 25.2716 21.7928 26.558 21.793 27.8993C21.7933 29.2405 21.2617 30.5272 20.3147 31.4773L17.0393 34.7529Z" fill="#816892"/>
<path d="M27.1643 34.7529L23.585 31.1748L26.859 27.9002L25.3747 26.4163C24.9046 25.946 24.5318 25.3879 24.2775 24.7736C24.0233 24.1593 23.8925 23.501 23.8928 22.8362C23.893 22.1714 24.0242 21.5132 24.2789 20.8991C24.5336 20.285 24.9068 19.7271 25.3772 19.2572L28.6488 15.9902L32.2256 19.5709L28.9541 22.8379L30.4384 24.3218C31.3857 25.2716 31.9178 26.558 31.918 27.8993C31.9183 29.2405 31.3867 30.5272 30.4397 31.4773L27.1643 34.7529Z" fill="#816892"/>
<path d="M37.2893 34.7529L33.71 31.1748L36.984 27.9002L35.4997 26.4163C35.0296 25.946 34.6568 25.3879 34.4025 24.7736C34.1483 24.1593 34.0175 23.501 34.0178 22.8362C34.018 22.1714 34.1492 21.5132 34.4039 20.8991C34.6586 20.285 35.0318 19.7271 35.5022 19.2572L38.7738 15.9902L42.3506 19.5709L39.0791 22.8379L40.5634 24.3218C41.5107 25.2716 42.0428 26.558 42.043 27.8993C42.0433 29.2405 41.5117 30.5272 40.5647 31.4773L37.2893 34.7529Z" fill="#816892"/>
<path d="M91.1875 30.9437V17.7812H83.5938V24.8688L76 17.7812L53.2188 38.0312H60.8125V63.3438H91.1875V38.0312H98.7812L91.1875 30.9437Z" fill="#59BC19"/>
<path d="M122.312 38.1413C119.459 37.2526 119.03 36.9065 119.03 35.5C119.03 34.8287 119.297 34.1848 119.772 33.7101C120.246 33.2354 120.89 32.9688 121.561 32.9688C122.233 32.9688 122.877 33.2354 123.351 33.7101C123.826 34.1848 124.093 34.8287 124.093 35.5H129.155C129.15 33.9347 128.661 32.4093 127.755 31.1331C126.848 29.857 125.569 28.8927 124.093 28.3727V22.8438H119.03V28.3727C117.554 28.8927 116.275 29.857 115.368 31.1331C114.462 32.4093 113.973 33.9347 113.968 35.5C113.968 40.8431 118.248 42.1767 120.805 42.9739C123.663 43.865 124.093 44.2123 124.093 45.625C124.093 46.2963 123.826 46.9402 123.351 47.4149C122.877 47.8896 122.233 48.1562 121.561 48.1562C120.89 48.1562 120.246 47.8896 119.772 47.4149C119.297 46.9402 119.03 46.2963 119.03 45.625H113.968C113.973 47.1903 114.462 48.7157 115.368 49.9918C116.275 51.2679 117.554 52.2322 119.03 52.7522V58.2812H124.093V52.7523C125.569 52.2323 126.848 51.268 127.755 49.9919C128.661 48.7157 129.15 47.1903 129.155 45.625C129.155 40.2745 124.871 38.9397 122.312 38.1413Z" fill="#F2872F"/>
<path d="M15.249 53.2188L17.4913 47.6131C18.3238 45.5318 19.7609 43.7477 21.6171 42.4909C23.4734 41.2342 25.6636 40.5625 27.9052 40.5625C30.1469 40.5625 32.3371 41.2342 34.1934 42.4909C36.0496 43.7477 37.4867 45.5318 38.3192 47.6131L40.5615 53.2188" fill="#F79694"/>
<path d="M12.7188 53.2188H43.0937L38.0312 63.2129H17.7812L12.7188 53.2188Z" fill="#DE2F55"/>
</svg>
