<svg width="127" height="137" viewBox="0 0 127 137" fill="none" xmlns="http://www.w3.org/2000/svg">
<path d="M126.937 136.478H9.125C6.72147 136.478 4.41639 135.522 2.71684 133.822C1.0173 132.122 0.0625 129.815 0.0625 127.411C0.0625 125.006 1.0173 122.7 2.71684 120.999C4.41639 119.299 6.72147 118.344 9.125 118.344H126.937L125.61 119.672C124.594 120.688 123.788 121.895 123.239 123.223C122.689 124.55 122.406 125.973 122.406 127.411C122.406 128.848 122.689 130.271 123.239 131.599C123.788 132.927 124.594 134.133 125.61 135.149L126.937 136.478Z" fill="#E2E7F6"/>
<path d="M9.125 0.53125H126.937V118.344H9.125V0.53125Z" fill="#F4A93C"/>
<path d="M120.141 104.75V0.53125H9.125V109.281H115.609C116.811 109.281 117.964 108.804 118.813 107.954C119.663 107.104 120.141 105.952 120.141 104.75Z" fill="#F6B940"/>
<path d="M9.12506 0.53125V118.344C6.72152 118.344 4.41642 119.299 2.71686 120.998C1.0173 122.698 0.0625 125.003 0.0625 127.406V9.59375C0.0625 7.19023 1.0173 4.88514 2.71686 3.18559C4.41642 1.48605 6.72152 0.53125 9.12506 0.53125Z" fill="#D5883E"/>
<path d="M54.4375 45.8467L61.2344 77.5645H111.078L117.875 45.8467H54.4375Z" fill="#F2F2F2"/>
<path d="M22.7188 45.8438H32.6875C33.7147 45.8439 34.7114 46.1931 35.5141 46.834C36.3168 47.475 36.8779 48.3696 37.1055 49.3713L46.0298 88.6323C46.4852 90.6372 47.6088 92.4277 49.216 93.7098C50.8233 94.9918 52.8188 95.6892 54.8748 95.6875H113.344C114.546 95.6875 115.698 95.2101 116.548 94.3603C117.398 93.5106 117.875 92.358 117.875 91.1562C117.875 89.9545 117.398 88.8019 116.548 87.9522C115.698 87.1024 114.546 86.625 113.344 86.625H58.0625C57.0349 86.6253 56.0377 86.2764 55.2345 85.6354C54.4313 84.9944 53.8699 84.0995 53.6423 83.0974L44.718 43.8341C44.2621 41.8297 43.1383 40.0397 41.5311 38.7581C39.9238 37.4765 37.9286 36.7794 35.873 36.7813H22.7188C21.517 36.7813 20.3644 37.2587 19.5147 38.1084C18.6649 38.9582 18.1875 40.1107 18.1875 41.3125C18.1875 42.5143 18.6649 43.6668 19.5147 44.5166C20.3644 45.3664 21.517 45.8438 22.7188 45.8438Z" fill="#3B5892"/>
<path d="M119.635 44.4187C119.423 44.1563 119.155 43.9447 118.85 43.7992C118.546 43.6538 118.212 43.5783 117.875 43.5781H54.4374C54.0998 43.5784 53.7666 43.6542 53.4621 43.7998C53.1576 43.9454 52.8894 44.1572 52.6773 44.4197C52.4651 44.6823 52.3143 44.9889 52.2359 45.3172C52.1574 45.6455 52.1533 45.9872 52.2239 46.3173L59.0207 78.036C59.1291 78.5429 59.4079 78.9972 59.8107 79.3234C60.2135 79.6495 60.716 79.8277 61.2343 79.8281H111.078C111.597 79.8282 112.1 79.6502 112.503 79.3241C112.906 78.9979 113.185 78.5432 113.294 78.036L120.091 46.3173C120.161 45.9869 120.157 45.6449 120.078 45.3164C119.999 44.9879 119.848 44.6812 119.635 44.4187ZM112.644 59.4375H102.362L103.982 48.1094H115.072L112.644 59.4375ZM83.8905 63.9688V75.2969H76.7946L75.1746 63.9688H83.8905ZM74.5289 59.4375L72.909 48.1094H83.8905V59.4375H74.5289ZM88.4217 63.9688H97.1376L95.5177 75.2969H88.4217V63.9688ZM88.4217 59.4375V48.1094H99.4032L97.7833 59.4375H88.4217ZM68.3302 48.1094L69.9501 59.4375H59.6687L57.24 48.1094H68.3302ZM60.6384 63.9688H70.5958L72.2157 75.2969H63.0671L60.6384 63.9688ZM109.247 75.2969H100.097L101.716 63.9688H111.674L109.247 75.2969Z" fill="#5E87CA"/>
<path d="M68.0312 109.281C71.7851 109.281 74.8281 106.238 74.8281 102.484C74.8281 98.7306 71.7851 95.6875 68.0312 95.6875C64.2774 95.6875 61.2344 98.7306 61.2344 102.484C61.2344 106.238 64.2774 109.281 68.0312 109.281Z" fill="#686868"/>
<path d="M104.281 109.281C108.035 109.281 111.078 106.238 111.078 102.484C111.078 98.7306 108.035 95.6875 104.281 95.6875C100.527 95.6875 97.4844 98.7306 97.4844 102.484C97.4844 106.238 100.527 109.281 104.281 109.281Z" fill="#686868"/>
<path d="M86.1562 50.377C96.1664 50.377 104.281 42.2595 104.281 32.2461C104.281 22.2327 96.1664 14.1152 86.1562 14.1152C76.1461 14.1152 68.0312 22.2327 68.0312 32.2461C68.0312 42.2595 76.1461 50.377 86.1562 50.377Z" fill="#F9D266"/>
<path d="M83.8906 50.2178C92.6495 50.2178 99.7499 42.1709 99.7499 32.2446C99.7499 22.3183 92.6495 14.2715 83.8906 14.2715C75.1317 14.2715 68.0312 22.3183 68.0312 32.2446C68.0312 42.1709 75.1317 50.2178 83.8906 50.2178Z" fill="#FCE797"/>
<path d="M88.4219 29.9807V25.4509C89.0228 25.4509 89.599 25.6895 90.0239 26.1143C90.4488 26.539 90.6875 27.1151 90.6875 27.7158H95.2188C95.2188 25.9138 94.5026 24.1855 93.228 22.9113C91.9533 21.637 90.2245 20.9211 88.4219 20.9211V18.6562H83.8906V20.9211C82.088 20.9211 80.3592 21.637 79.0845 22.9113C77.8099 24.1855 77.0938 25.9138 77.0938 27.7158C77.0938 29.5179 77.8099 31.2461 79.0845 32.5204C80.3592 33.7946 82.088 34.5105 83.8906 34.5105V39.0403C83.2897 39.0403 82.7135 38.8017 82.2886 38.3769C81.8637 37.9522 81.625 37.3761 81.625 36.7754H77.0938C77.0938 38.5775 77.8099 40.3057 79.0845 41.58C80.3592 42.8542 82.088 43.5701 83.8906 43.5701V45.835H88.4219V43.5701C90.2245 43.5701 91.9533 42.8542 93.228 41.58C94.5026 40.3057 95.2188 38.5775 95.2188 36.7754C95.2188 34.9733 94.5026 33.2451 93.228 31.9708C91.9533 30.6966 90.2245 29.9807 88.4219 29.9807ZM81.625 27.7158C81.625 27.1151 81.8637 26.539 82.2886 26.1143C82.7135 25.6895 83.2897 25.4509 83.8906 25.4509V29.9807C83.2897 29.9807 82.7135 29.7421 82.2886 29.3173C81.8637 28.8926 81.625 28.3165 81.625 27.7158ZM88.4219 39.0403V34.5105C89.0228 34.5105 89.599 34.7491 90.0239 35.1739C90.4488 35.5986 90.6875 36.1747 90.6875 36.7754C90.6875 37.3761 90.4488 37.9522 90.0239 38.3769C89.599 38.8017 89.0228 39.0403 88.4219 39.0403Z" fill="#F0AE42"/>
<path d="M122.406 127.406C122.41 126.644 122.494 125.885 122.655 125.141H0.381916C-0.0439721 126.621 -0.0439721 128.191 0.381916 129.672H122.655C122.494 128.927 122.41 128.168 122.406 127.406Z" fill="#C8CDED"/>
<path d="M18.1875 9.59375H54.4375V27.7188H18.1875V9.59375Z" fill="#F9D266"/>
<path d="M47.6406 18.6562V9.59375H18.1875V20.9219H45.375C45.9759 20.9219 46.5522 20.6832 46.977 20.2583C47.4019 19.8334 47.6406 19.2571 47.6406 18.6562Z" fill="#FCE797"/>
</svg>
