<svg width="178" height="178" viewBox="0 0 178 178" fill="none" xmlns="http://www.w3.org/2000/svg">
<path d="M55.0628 83.1816C54.1048 83.1816 53.1775 82.6674 52.694 81.7637C51.9947 80.4567 52.4871 78.8302 53.7941 78.1305L81.7857 63.1503L109.615 45.7477C109.63 45.738 109.646 45.7287 109.661 45.7198L133.445 31.4998C134.718 30.7393 136.366 31.154 137.126 32.4263C137.887 33.6986 137.472 35.3466 136.2 36.1075L112.439 50.3135L84.555 67.7498C84.5038 67.7817 84.4516 67.8121 84.3983 67.8407L56.3268 82.8638C55.9239 83.0793 55.4901 83.1816 55.0628 83.1816Z" fill="#C8EFFE"/>
<path d="M134.82 151.021C134.347 151.021 133.868 150.895 133.433 150.633L107.657 135.042C107.646 135.035 107.635 135.028 107.623 135.021L81.709 118.816C81.6743 118.795 81.6399 118.772 81.6059 118.749L57.6018 102.16C56.3821 101.317 56.0768 99.6454 56.9196 98.4258C57.7625 97.2066 59.4345 96.901 60.6538 97.7437L84.6071 114.298L110.452 130.459L136.212 146.04C137.48 146.807 137.886 148.457 137.119 149.725C136.615 150.559 135.729 151.021 134.82 151.021Z" fill="#C8EFFE"/>
<path d="M143.212 34.2822C141.73 34.2822 140.528 35.484 140.528 36.9663V133.825C140.528 135.307 141.73 136.509 143.212 136.509C144.695 136.509 145.897 135.307 145.897 133.825V36.9663C145.897 35.484 144.695 34.2822 143.212 34.2822Z" fill="#C8EFFE"/>
<path d="M45.4313 45.4014C20.3439 45.4014 0.00195312 65.7452 0.00195312 90.835C0.00195312 107.737 9.2317 122.482 22.9239 130.308L26.0095 128.623L64.9212 128.057L67.8826 130.34C81.6063 122.523 90.8607 107.761 90.8607 90.835C90.8607 65.7452 70.5224 45.4014 45.4313 45.4014Z" fill="#98BCE5"/>
<path d="M31.1062 117.501C25.664 110.011 22.4534 100.795 22.4534 90.8288C22.4534 69.6167 36.9977 51.7989 56.6567 46.801C53.0658 45.8881 49.3045 45.4014 45.4293 45.4014C20.3419 45.401 0 65.7421 0 90.8284C0 107.728 9.22902 122.47 22.9204 130.295L31.1062 117.501Z" fill="#7BACDF"/>
<path d="M45.4322 125.522C64.5926 125.522 80.1251 109.99 80.1251 90.8291C80.1251 71.6685 64.5926 56.1357 45.4322 56.1357C26.2718 56.1357 10.7393 71.6685 10.7393 90.8291C10.7393 109.99 26.2718 125.522 45.4322 125.522Z" fill="#5F99D7"/>
<path d="M37.5127 57.0586C22.1865 60.6504 10.7393 74.4297 10.7393 90.8328C10.7393 107.237 22.1875 121.017 37.5149 124.607C28.2705 116.293 22.4552 104.242 22.4552 90.8314C22.4552 77.4232 28.2694 65.3729 37.5127 57.0586Z" fill="#3C87D0"/>
<path d="M67.7122 119.727C67.7122 117.225 66.5992 114.852 64.6738 113.253L51.9154 102.659L49.2746 99.9521H41.5791L38.8707 102.659L26.1122 113.253C24.1904 114.852 23.0738 117.225 23.0738 119.727L22.9199 130.299C29.555 134.089 37.2423 136.258 45.4306 136.258C53.5974 136.258 61.2597 134.103 67.884 130.331L67.7122 119.727Z" fill="#ADE194"/>
<path d="M53.762 104.192L51.9153 102.659L49.2746 99.9521H41.5791L38.8706 102.659L26.1122 113.251C24.1904 114.851 23.0738 117.223 23.0738 119.724L22.9199 130.295C25.613 131.833 28.4817 133.099 31.4847 134.066L31.6318 123.964C31.6318 121.463 32.7484 119.09 34.6702 117.491L38.0493 114.685C39.4873 113.491 41.3783 112.936 43.2156 113.277C43.9228 113.408 44.6511 113.476 45.3948 113.476C48.5756 113.476 51.5625 112.238 53.7999 109.994C54.8757 108.918 55.7182 107.668 56.3073 106.305L53.762 104.192Z" fill="#97DA7B"/>
<path d="M51.9159 90.798V101.59C51.9159 101.951 51.8873 102.302 51.83 102.646C51.6045 104.024 50.9496 105.255 50.0048 106.2C48.8274 107.381 47.1954 108.111 45.3953 108.111C42.1529 108.111 39.4616 105.745 38.957 102.646C38.8997 102.302 38.8711 101.951 38.8711 101.59V90.7623L39.0071 90.4688C40.9575 91.3815 43.1335 91.8933 45.4311 91.8933C47.7 91.8933 49.8509 91.3958 51.7799 90.5045L51.9159 90.798Z" fill="#FED2A4"/>
<path d="M54.4603 59.2656H37.1926L31.8351 57.5047C31.0585 57.2506 30.2568 57.8304 30.2568 58.65V73.5032L35.4117 79.0215H57.7954L60.6086 73.5032V65.4145C60.6086 62.0179 57.8565 59.2656 54.4603 59.2656Z" fill="#A79BA7"/>
<path d="M38.871 65.5494C38.871 64.7298 39.6727 64.15 40.4493 64.4041L45.8067 66.165H60.6086V65.4145C60.6086 62.0179 57.8565 59.2656 54.4603 59.2656H37.1926L31.8351 57.5047C31.0585 57.2506 30.2568 57.8304 30.2568 58.65V73.5032L35.4117 79.0215H38.871V65.5494Z" fill="#918291"/>
<path d="M60.6086 73.502V83.1629C60.6086 89.2766 56.9905 94.5492 51.7797 96.951C49.8508 97.8423 47.6999 98.3398 45.431 98.3398C43.1334 98.3398 40.9575 97.828 39.007 96.9152C33.8356 94.4955 30.2568 89.248 30.2568 83.1629V73.502H60.6086Z" fill="#FED2A4"/>
<path d="M47.6213 96.9152C42.4499 94.4955 38.8711 89.248 38.8711 83.1629V73.502H30.2568V83.1629C30.2568 89.248 33.8357 94.4955 39.0071 96.9152C40.9575 97.828 43.1335 98.3398 45.4311 98.3398C46.9292 98.3398 48.3739 98.119 49.7389 97.7152C49.0088 97.499 48.3006 97.2334 47.6213 96.9152Z" fill="#FFBD86"/>
<path d="M143.212 0C124.001 0 108.43 15.5721 108.43 34.7875C108.43 46.364 114.085 56.617 122.782 62.9399L125.85 60.071L160.136 60.604L163.638 62.9453C172.34 56.6231 177.998 46.3676 177.998 34.7878C177.998 15.5721 162.427 0 143.212 0Z" fill="#98BCE5"/>
<path d="M132.479 51.4388C129.774 46.492 128.232 40.8187 128.232 34.7826C128.232 19.0105 138.726 5.69618 153.112 1.4321C149.973 0.501699 146.65 0 143.209 0C123.998 0 108.427 15.5698 108.427 34.7826C108.427 46.3574 114.082 56.609 122.779 62.9307L132.479 51.4388Z" fill="#7BACDF"/>
<path d="M143.211 58.8359C129.952 58.8359 119.165 48.0453 119.165 34.7816C119.165 21.5161 129.952 10.7236 143.211 10.7236C156.472 10.7236 167.261 21.5161 167.261 34.7816C167.261 48.0453 156.472 58.8359 143.211 58.8359Z" fill="#5F99D7"/>
<path d="M137.178 58.0645C131.62 51.9001 128.234 43.7394 128.234 34.7845C128.234 25.8278 131.62 17.6657 137.179 11.501C126.83 14.1848 119.165 23.606 119.165 34.7845C119.165 45.9612 126.83 55.381 137.178 58.0645Z" fill="#3C87D0"/>
<path d="M143.211 40.6914C154.484 40.6914 163.621 49.8272 163.621 61.0994L163.639 62.9384C157.848 67.2505 150.991 69.5625 143.211 69.5625C135.434 69.5625 128.573 67.2462 122.779 62.9341L122.801 61.0994C122.801 55.4633 125.084 50.3604 128.781 46.6674C132.475 42.9745 137.574 40.6914 143.211 40.6914Z" fill="#F37C7C"/>
<path d="M143.211 10.7344C151.485 10.7344 158.192 17.4415 158.192 25.7126C158.192 33.9873 151.485 40.6943 143.211 40.6943C134.94 40.6943 128.233 33.9873 128.233 25.7126C128.233 17.4415 134.94 10.7344 143.211 10.7344Z" fill="#FFE5C2"/>
<path d="M130.793 66.3522C130.793 60.715 133.077 55.6111 136.774 51.9174C140.467 48.2237 145.567 45.9402 151.203 45.9402C153.619 45.9402 155.94 46.3604 158.09 47.1307C154.368 43.1678 149.078 40.6914 143.211 40.6914C137.574 40.6914 132.475 42.9749 128.781 46.6686C125.084 50.3623 122.801 55.4662 122.801 61.1034L122.779 62.9384C125.255 64.7813 127.93 66.2595 130.783 67.3486L130.793 66.3522Z" fill="#EE6161"/>
<path d="M138.655 25.3153C138.655 19.0806 142.475 13.7354 147.894 11.4806C146.422 10.9978 144.843 10.7344 143.211 10.7344C134.94 10.7344 128.233 17.4415 128.233 25.7126C128.233 33.9873 134.94 40.6943 143.211 40.6943C145.248 40.6943 147.19 40.2863 148.961 39.5498C142.978 37.586 138.655 31.9572 138.655 25.3153Z" fill="#FED2A4"/>
<path d="M143.214 108.119C124.003 108.119 108.432 123.692 108.432 142.901C108.432 154.487 114.097 164.747 122.808 171.069L126.124 169.65L161.546 170.368L163.622 171.069C172.334 164.748 178 154.487 178 142.901C178 123.692 162.429 108.119 143.214 108.119Z" fill="#98BCE5"/>
<path d="M131.698 159.608C128.975 154.648 127.423 148.954 127.423 142.895C127.423 126.979 138.114 113.558 152.707 109.425C149.688 108.57 146.502 108.112 143.208 108.112C123.997 108.112 108.426 123.686 108.426 142.895C108.426 154.48 114.091 164.741 122.8 171.062L131.698 159.608Z" fill="#7BACDF"/>
<path d="M143.211 166.941C129.952 166.941 119.165 156.154 119.165 142.894C119.165 129.634 129.952 118.847 143.211 118.847C156.472 118.847 167.261 129.634 167.261 142.894C167.261 156.154 156.472 166.941 143.211 166.941Z" fill="#5F99D7"/>
<path d="M136.099 165.87C130.702 159.742 127.425 151.702 127.425 142.895C127.425 134.087 130.692 126.051 136.088 119.923C126.29 122.963 119.165 132.109 119.165 142.895C119.165 153.68 126.301 162.83 136.099 165.87Z" fill="#3C87D0"/>
<path d="M143.212 148.812C151.485 148.812 158.192 142.105 158.192 133.83C158.192 125.556 151.485 118.848 143.212 118.848C134.939 118.848 128.232 125.556 128.232 133.83C128.232 142.105 134.939 148.812 143.212 148.812Z" fill="#FFE5C2"/>
<path d="M137.423 133.83C137.423 127.159 141.792 121.509 147.817 119.569C146.368 119.102 144.816 118.848 143.212 118.848C134.939 118.848 128.232 125.556 128.232 133.83C128.232 142.105 134.939 148.812 143.212 148.812C144.816 148.812 146.368 148.558 147.817 148.092C141.793 146.151 137.423 140.501 137.423 133.83Z" fill="#FED2A4"/>
<path d="M163.622 171.066C157.892 175.228 150.838 177.68 143.212 177.68C135.585 177.68 128.535 175.225 122.802 171.066V169.216C122.802 163.58 125.085 158.477 128.782 154.784C132.475 151.091 137.575 148.808 143.212 148.808C154.485 148.808 163.622 157.944 163.622 169.216V171.066Z" fill="#FEE97D"/>
<path d="M130.57 174.298C130.57 168.661 132.853 163.556 136.55 159.862C140.243 156.168 145.343 153.884 150.98 153.884C153.428 153.884 155.784 154.318 157.958 155.108C154.243 151.228 149.007 148.808 143.212 148.808C137.575 148.808 132.475 151.091 128.782 154.785C125.085 158.479 122.802 163.584 122.802 169.222V171.072C125.181 172.798 127.794 174.234 130.574 175.319L130.57 174.298Z" fill="#FEE45A"/>
</svg>
